solid Project-17 Iambic Keyer V2
facet normal 0.5733435352536914 -0.8193150740605225 -1.4150560042057684e-18
  outer loop
    vertex -1.6152374874424487 3.1049972397991925 12.999999999999998
    vertex -2.363832025361716 2.5811428003646615 3.9999999999999996
    vertex -1.6152374874424487 3.1049972397991925 3.9999999999999996
  endloop
endfacet
facet normal 0.5733435352536914 -0.8193150740605225 -1.4150560042057684e-18
  outer loop
    vertex -2.363832025361716 2.5811428003646615 3.9999999999999996
    vertex -1.6152374874424487 3.1049972397991925 12.999999999999998
    vertex -2.363832025361716 2.5811428003646615 12.999999999999998
  endloop
endfacet
facet normal 0.34175298293097195 -0.9397898162130631 -1.6231304222598782e-18
  outer loop
    vertex -0.7565671840601366 3.4172512485919606 12.999999999999998
    vertex -1.6152374874424487 3.1049972397991925 3.9999999999999996
    vertex -0.7565671840601366 3.4172512485919606 3.9999999999999996
  endloop
endfacet
facet normal 0.34175298293097195 -0.9397898162130631 -1.6231304222598782e-18
  outer loop
    vertex -1.6152374874424487 3.1049972397991925 3.9999999999999996
    vertex -0.7565671840601366 3.4172512485919606 12.999999999999998
    vertex -1.6152374874424487 3.1049972397991925 12.999999999999998
  endloop
endfacet
facet normal 0.0868725295950148 -0.9962194354667869 -4.3014779609671517e-19
  outer loop
    vertex 0.1536619226294865 3.496625232067888 12.999999999999998
    vertex -0.7565671840601366 3.4172512485919606 3.9999999999999996
    vertex 0.1536619226294865 3.496625232067888 3.9999999999999996
  endloop
endfacet
facet normal 0.0868725295950148 -0.9962194354667869 -4.3014779609671517e-19
  outer loop
    vertex -0.7565671840601366 3.4172512485919606 3.9999999999999996
    vertex 0.1536619226294865 3.496625232067888 12.999999999999998
    vertex -0.7565671840601366 3.4172512485919606 12.999999999999998
  endloop
endfacet
facet normal 0.7658616731438632 -0.6430053635929349 -2.2210957159113256e-18
  outer loop
    vertex -2.363832025361716 2.5811428003646615 3.9999999999999996
    vertex -2.951335317169705 1.8813877446254383 12.999999999999998
    vertex -2.951335317169705 1.8813877446254383 3.9999999999999996
  endloop
endfacet
facet normal 0.7658616731438632 -0.6430053635929349 -2.2210957159113256e-18
  outer loop
    vertex -2.951335317169705 1.8813877446254383 12.999999999999998
    vertex -2.363832025361716 2.5811428003646615 3.9999999999999996
    vertex -2.363832025361716 2.5811428003646615 12.999999999999998
  endloop
endfacet
facet normal -0.1739281430692008 -0.9847583465239073 0.0
  outer loop
    vertex 1.0534192232302448 3.3377099844247975 12.999999999999998
    vertex 0.1536619226294865 3.496625232067888 3.9999999999999996
    vertex 1.0534192232302448 3.3377099844247975 3.9999999999999996
  endloop
endfacet
facet normal -0.1739281430692008 -0.9847583465239073 0.0
  outer loop
    vertex 0.1536619226294865 3.496625232067888 3.9999999999999996
    vertex 1.0534192232302448 3.3377099844247975 12.999999999999998
    vertex 0.1536619226294865 3.496625232067888 12.999999999999998
  endloop
endfacet
facet normal -0.4228759002130952 -0.906187603655537 -5.560335645097663e-33
  outer loop
    vertex 1.881387744625438 2.951335317169705 12.999999999999998
    vertex 1.0534192232302448 3.3377099844247975 3.9999999999999996
    vertex 1.881387744625438 2.951335317169705 3.9999999999999996
  endloop
endfacet
facet normal -0.4228759002130952 -0.906187603655537 -5.560335645097663e-33
  outer loop
    vertex 1.0534192232302448 3.3377099844247975 3.9999999999999996
    vertex 1.881387744625438 2.951335317169705 12.999999999999998
    vertex 1.0534192232302448 3.3377099844247975 12.999999999999998
  endloop
endfacet
facet normal 0.9847583465239073 -0.17392814306920074 -0.0
  outer loop
    vertex -3.3377099844247975 1.0534192232302453 3.9999999999999996
    vertex -3.496625232067888 0.1536619226294865 12.999999999999998
    vertex -3.496625232067888 0.1536619226294865 3.9999999999999996
  endloop
endfacet
facet normal 0.9847583465239073 -0.17392814306920074 -0.0
  outer loop
    vertex -3.496625232067888 0.1536619226294865 12.999999999999998
    vertex -3.3377099844247975 1.0534192232302453 3.9999999999999996
    vertex -3.3377099844247975 1.0534192232302453 12.999999999999998
  endloop
endfacet
facet normal 0.9061876036555369 -0.4228759002130956 -0.0
  outer loop
    vertex -2.951335317169705 1.8813877446254383 3.9999999999999996
    vertex -3.3377099844247975 1.0534192232302453 12.999999999999998
    vertex -3.3377099844247975 1.0534192232302453 3.9999999999999996
  endloop
endfacet
facet normal 0.9061876036555369 -0.4228759002130956 -0.0
  outer loop
    vertex -3.3377099844247975 1.0534192232302453 12.999999999999998
    vertex -2.951335317169705 1.8813877446254383 3.9999999999999996
    vertex -2.951335317169705 1.8813877446254383 12.999999999999998
  endloop
endfacet
facet normal -0.9397898162130632 -0.34175298293097145 5.7665176536398854e-33
  outer loop
    vertex 3.104997239799193 1.6152374874424469 12.999999999999998
    vertex 3.4172512485919606 0.7565671840601353 3.9999999999999996
    vertex 3.4172512485919606 0.7565671840601353 12.999999999999998
  endloop
endfacet
facet normal -0.9397898162130632 -0.34175298293097145 5.7665176536398854e-33
  outer loop
    vertex 3.4172512485919606 0.7565671840601353 3.9999999999999996
    vertex 3.104997239799193 1.6152374874424469 12.999999999999998
    vertex 3.104997239799193 1.6152374874424469 3.9999999999999996
  endloop
endfacet
facet normal -0.9847583465239073 0.17392814306920046 0.0
  outer loop
    vertex 3.496625232067888 -0.15366192262948722 12.999999999999998
    vertex 3.3377099844247975 -1.0534192232302473 3.9999999999999996
    vertex 3.3377099844247975 -1.0534192232302473 12.999999999999998
  endloop
endfacet
facet normal -0.9847583465239073 0.17392814306920046 0.0
  outer loop
    vertex 3.3377099844247975 -1.0534192232302473 3.9999999999999996
    vertex 3.496625232067888 -0.15366192262948722 12.999999999999998
    vertex 3.496625232067888 -0.15366192262948722 3.9999999999999996
  endloop
endfacet
facet normal -0.8193150740605227 -0.5733435352536909 -1.9804669478676505e-18
  outer loop
    vertex 2.5811428003646615 2.363832025361716 12.999999999999998
    vertex 3.104997239799193 1.6152374874424469 3.9999999999999996
    vertex 3.104997239799193 1.6152374874424469 12.999999999999998
  endloop
endfacet
facet normal -0.8193150740605227 -0.5733435352536909 -1.9804669478676505e-18
  outer loop
    vertex 3.104997239799193 1.6152374874424469 3.9999999999999996
    vertex 2.5811428003646615 2.363832025361716 12.999999999999998
    vertex 2.5811428003646615 2.363832025361716 3.9999999999999996
  endloop
endfacet
facet normal -0.6430053635929349 -0.7658616731438632 0.0
  outer loop
    vertex 2.5811428003646615 2.363832025361716 12.999999999999998
    vertex 1.881387744625438 2.951335317169705 3.9999999999999996
    vertex 2.5811428003646615 2.363832025361716 3.9999999999999996
  endloop
endfacet
facet normal -0.6430053635929349 -0.7658616731438632 0.0
  outer loop
    vertex 1.881387744625438 2.951335317169705 3.9999999999999996
    vertex 2.5811428003646615 2.363832025361716 12.999999999999998
    vertex 1.881387744625438 2.951335317169705 12.999999999999998
  endloop
endfacet
facet normal -0.9962194354667869 -0.08687252959501485 -4.3014779609671517e-19
  outer loop
    vertex 3.4172512485919606 0.7565671840601353 12.999999999999998
    vertex 3.496625232067888 -0.15366192262948722 3.9999999999999996
    vertex 3.496625232067888 -0.15366192262948722 12.999999999999998
  endloop
endfacet
facet normal -0.9962194354667869 -0.08687252959501485 -4.3014779609671517e-19
  outer loop
    vertex 3.496625232067888 -0.15366192262948722 3.9999999999999996
    vertex 3.4172512485919606 0.7565671840601353 12.999999999999998
    vertex 3.4172512485919606 0.7565671840601353 3.9999999999999996
  endloop
endfacet
facet normal -0.9061876036555366 0.422875900213096 2.5947518283437438e-33
  outer loop
    vertex 3.3377099844247975 -1.0534192232302473 12.999999999999998
    vertex 2.951335317169705 -1.8813877446254395 3.9999999999999996
    vertex 2.951335317169705 -1.8813877446254395 12.999999999999998
  endloop
endfacet
facet normal -0.9061876036555366 0.422875900213096 2.5947518283437438e-33
  outer loop
    vertex 2.951335317169705 -1.8813877446254395 3.9999999999999996
    vertex 3.3377099844247975 -1.0534192232302473 12.999999999999998
    vertex 3.3377099844247975 -1.0534192232302473 3.9999999999999996
  endloop
endfacet
facet normal 0.42287590021309523 0.9061876036555369 1.2973759141718695e-33
  outer loop
    vertex -1.8813877446254395 -2.951335317169705 12.999999999999998
    vertex -1.0534192232302453 -3.3377099844247975 3.9999999999999996
    vertex -1.8813877446254395 -2.951335317169705 3.9999999999999996
  endloop
endfacet
facet normal 0.42287590021309523 0.9061876036555369 1.2973759141718695e-33
  outer loop
    vertex -1.0534192232302453 -3.3377099844247975 3.9999999999999996
    vertex -1.8813877446254395 -2.951335317169705 12.999999999999998
    vertex -1.0534192232302453 -3.3377099844247975 12.999999999999998
  endloop
endfacet
facet normal 0.8193150740605223 0.5733435352536915 -5.654109436618795e-19
  outer loop
    vertex -3.104997239799193 -1.6152374874424487 3.9999999999999996
    vertex -2.5811428003646615 -2.3638320253617158 12.999999999999998
    vertex -2.5811428003646615 -2.3638320253617158 3.9999999999999996
  endloop
endfacet
facet normal 0.8193150740605223 0.5733435352536915 -5.654109436618795e-19
  outer loop
    vertex -2.5811428003646615 -2.3638320253617158 12.999999999999998
    vertex -3.104997239799193 -1.6152374874424487 3.9999999999999996
    vertex -3.104997239799193 -1.6152374874424487 12.999999999999998
  endloop
endfacet
facet normal -0.3417529829309723 0.9397898162130629 -1.6231304222598788e-18
  outer loop
    vertex 0.7565671840601357 -3.4172512485919615 12.999999999999998
    vertex 1.6152374874424469 -3.104997239799193 3.9999999999999996
    vertex 0.7565671840601357 -3.4172512485919615 3.9999999999999996
  endloop
endfacet
facet normal -0.3417529829309723 0.9397898162130629 -1.6231304222598788e-18
  outer loop
    vertex 1.6152374874424469 -3.104997239799193 3.9999999999999996
    vertex 0.7565671840601357 -3.4172512485919615 12.999999999999998
    vertex 1.6152374874424469 -3.104997239799193 12.999999999999998
  endloop
endfacet
facet normal -0.7658616731438627 0.6430053635929356 -3.9454585659216845e-33
  outer loop
    vertex 2.951335317169705 -1.8813877446254395 12.999999999999998
    vertex 2.3638320253617158 -2.5811428003646615 3.9999999999999996
    vertex 2.3638320253617158 -2.5811428003646615 12.999999999999998
  endloop
endfacet
facet normal -0.7658616731438627 0.6430053635929356 -3.9454585659216845e-33
  outer loop
    vertex 2.3638320253617158 -2.5811428003646615 3.9999999999999996
    vertex 2.951335317169705 -1.8813877446254395 12.999999999999998
    vertex 2.951335317169705 -1.8813877446254395 3.9999999999999996
  endloop
endfacet
facet normal 0.6430053635929356 0.7658616731438627 -3.9454585659216845e-33
  outer loop
    vertex -2.5811428003646615 -2.3638320253617158 12.999999999999998
    vertex -1.8813877446254395 -2.951335317169705 3.9999999999999996
    vertex -2.5811428003646615 -2.3638320253617158 3.9999999999999996
  endloop
endfacet
facet normal 0.6430053635929356 0.7658616731438627 -3.9454585659216845e-33
  outer loop
    vertex -1.8813877446254395 -2.951335317169705 3.9999999999999996
    vertex -2.5811428003646615 -2.3638320253617158 12.999999999999998
    vertex -1.8813877446254395 -2.951335317169705 12.999999999999998
  endloop
endfacet
facet normal 0.9397898162130632 0.34175298293097145 1.623130422259885e-18
  outer loop
    vertex -3.4172512485919606 -0.756567184060136 3.9999999999999996
    vertex -3.104997239799193 -1.6152374874424487 12.999999999999998
    vertex -3.104997239799193 -1.6152374874424487 3.9999999999999996
  endloop
endfacet
facet normal 0.9397898162130632 0.34175298293097145 1.623130422259885e-18
  outer loop
    vertex -3.104997239799193 -1.6152374874424487 12.999999999999998
    vertex -3.4172512485919606 -0.756567184060136 3.9999999999999996
    vertex -3.4172512485919606 -0.756567184060136 12.999999999999998
  endloop
endfacet
facet normal 0.9962194354667869 0.08687252959501485 -4.3014779609671517e-19
  outer loop
    vertex -3.496625232067888 0.1536619226294865 3.9999999999999996
    vertex -3.4172512485919606 -0.756567184060136 12.999999999999998
    vertex -3.4172512485919606 -0.756567184060136 3.9999999999999996
  endloop
endfacet
facet normal 0.9962194354667869 0.08687252959501485 -4.3014779609671517e-19
  outer loop
    vertex -3.4172512485919606 -0.756567184060136 12.999999999999998
    vertex -3.496625232067888 0.1536619226294865 3.9999999999999996
    vertex -3.496625232067888 0.1536619226294865 12.999999999999998
  endloop
endfacet
facet normal -0.5733435352536909 0.8193150740605227 -0.0
  outer loop
    vertex 1.6152374874424469 -3.104997239799193 12.999999999999998
    vertex 2.3638320253617158 -2.5811428003646615 3.9999999999999996
    vertex 1.6152374874424469 -3.104997239799193 3.9999999999999996
  endloop
endfacet
facet normal -0.5733435352536909 0.8193150740605227 -0.0
  outer loop
    vertex 2.3638320253617158 -2.5811428003646615 3.9999999999999996
    vertex 1.6152374874424469 -3.104997239799193 12.999999999999998
    vertex 2.3638320253617158 -2.5811428003646615 12.999999999999998
  endloop
endfacet
facet normal 0.17392814306920107 0.9847583465239073 -0.0
  outer loop
    vertex -1.0534192232302453 -3.3377099844247975 12.999999999999998
    vertex -0.15366192262948827 -3.496625232067888 3.9999999999999996
    vertex -1.0534192232302453 -3.3377099844247975 3.9999999999999996
  endloop
endfacet
facet normal 0.17392814306920107 0.9847583465239073 -0.0
  outer loop
    vertex -0.15366192262948827 -3.496625232067888 3.9999999999999996
    vertex -1.0534192232302453 -3.3377099844247975 12.999999999999998
    vertex -0.15366192262948827 -3.496625232067888 12.999999999999998
  endloop
endfacet
facet normal -0.08687252959501397 0.9962194354667869 -0.0
  outer loop
    vertex -0.15366192262948827 -3.496625232067888 12.999999999999998
    vertex 0.7565671840601357 -3.4172512485919615 3.9999999999999996
    vertex -0.15366192262948827 -3.496625232067888 3.9999999999999996
  endloop
endfacet
facet normal -0.08687252959501397 0.9962194354667869 -0.0
  outer loop
    vertex 0.7565671840601357 -3.4172512485919615 3.9999999999999996
    vertex -0.15366192262948827 -3.496625232067888 12.999999999999998
    vertex 0.7565671840601357 -3.4172512485919615 12.999999999999998
  endloop
endfacet
facet normal -0.0 -0.0 1.0
  outer loop
    vertex -3.4172512485919606 -0.756567184060136 3.9999999999999996
    vertex -3.3377099844247975 1.0534192232302453 3.9999999999999996
    vertex -3.496625232067888 0.1536619226294865 3.9999999999999996
  endloop
endfacet
facet normal -0.0 -0.0 1.0
  outer loop
    vertex -3.3377099844247975 1.0534192232302453 3.9999999999999996
    vertex -3.4172512485919606 -0.756567184060136 3.9999999999999996
    vertex -3.104997239799193 -1.6152374874424487 3.9999999999999996
  endloop
endfacet
facet normal -0.0 -0.0 1.0
  outer loop
    vertex -3.3377099844247975 1.0534192232302453 3.9999999999999996
    vertex -3.104997239799193 -1.6152374874424487 3.9999999999999996
    vertex -2.951335317169705 1.8813877446254383 3.9999999999999996
  endloop
endfacet
facet normal -0.0 -0.0 1.0
  outer loop
    vertex -2.951335317169705 1.8813877446254383 3.9999999999999996
    vertex -3.104997239799193 -1.6152374874424487 3.9999999999999996
    vertex -2.5811428003646615 -2.3638320253617158 3.9999999999999996
  endloop
endfacet
facet normal -0.0 -0.0 1.0
  outer loop
    vertex -2.951335317169705 1.8813877446254383 3.9999999999999996
    vertex -2.5811428003646615 -2.3638320253617158 3.9999999999999996
    vertex -2.363832025361716 2.5811428003646615 3.9999999999999996
  endloop
endfacet
facet normal -0.0 -0.0 1.0
  outer loop
    vertex -2.363832025361716 2.5811428003646615 3.9999999999999996
    vertex -2.5811428003646615 -2.3638320253617158 3.9999999999999996
    vertex -1.8813877446254395 -2.951335317169705 3.9999999999999996
  endloop
endfacet
facet normal -0.0 -0.0 1.0
  outer loop
    vertex -2.363832025361716 2.5811428003646615 3.9999999999999996
    vertex -1.8813877446254395 -2.951335317169705 3.9999999999999996
    vertex -1.6152374874424487 3.1049972397991925 3.9999999999999996
  endloop
endfacet
facet normal -0.0 -0.0 1.0
  outer loop
    vertex -1.6152374874424487 3.1049972397991925 3.9999999999999996
    vertex -1.8813877446254395 -2.951335317169705 3.9999999999999996
    vertex -1.0534192232302453 -3.3377099844247975 3.9999999999999996
  endloop
endfacet
facet normal -0.0 -0.0 1.0
  outer loop
    vertex -1.6152374874424487 3.1049972397991925 3.9999999999999996
    vertex -1.0534192232302453 -3.3377099844247975 3.9999999999999996
    vertex -0.7565671840601366 3.4172512485919606 3.9999999999999996
  endloop
endfacet
facet normal -0.0 -0.0 1.0
  outer loop
    vertex -0.7565671840601366 3.4172512485919606 3.9999999999999996
    vertex -1.0534192232302453 -3.3377099844247975 3.9999999999999996
    vertex -0.15366192262948827 -3.496625232067888 3.9999999999999996
  endloop
endfacet
facet normal -0.0 -0.0 1.0
  outer loop
    vertex -0.7565671840601366 3.4172512485919606 3.9999999999999996
    vertex -0.15366192262948827 -3.496625232067888 3.9999999999999996
    vertex 0.1536619226294865 3.496625232067888 3.9999999999999996
  endloop
endfacet
facet normal -0.0 -0.0 1.0
  outer loop
    vertex 0.1536619226294865 3.496625232067888 3.9999999999999996
    vertex -0.15366192262948827 -3.496625232067888 3.9999999999999996
    vertex 0.7565671840601357 -3.4172512485919615 3.9999999999999996
  endloop
endfacet
facet normal -0.0 -0.0 1.0
  outer loop
    vertex 0.1536619226294865 3.496625232067888 3.9999999999999996
    vertex 0.7565671840601357 -3.4172512485919615 3.9999999999999996
    vertex 1.0534192232302448 3.3377099844247975 3.9999999999999996
  endloop
endfacet
facet normal -0.0 -0.0 1.0
  outer loop
    vertex 1.0534192232302448 3.3377099844247975 3.9999999999999996
    vertex 0.7565671840601357 -3.4172512485919615 3.9999999999999996
    vertex 1.6152374874424469 -3.104997239799193 3.9999999999999996
  endloop
endfacet
facet normal -0.0 -0.0 1.0
  outer loop
    vertex 1.0534192232302448 3.3377099844247975 3.9999999999999996
    vertex 1.6152374874424469 -3.104997239799193 3.9999999999999996
    vertex 1.881387744625438 2.951335317169705 3.9999999999999996
  endloop
endfacet
facet normal -0.0 -0.0 1.0
  outer loop
    vertex 1.881387744625438 2.951335317169705 3.9999999999999996
    vertex 1.6152374874424469 -3.104997239799193 3.9999999999999996
    vertex 2.3638320253617158 -2.5811428003646615 3.9999999999999996
  endloop
endfacet
facet normal -0.0 -0.0 1.0
  outer loop
    vertex 1.881387744625438 2.951335317169705 3.9999999999999996
    vertex 2.3638320253617158 -2.5811428003646615 3.9999999999999996
    vertex 2.5811428003646615 2.363832025361716 3.9999999999999996
  endloop
endfacet
facet normal -0.0 -0.0 1.0
  outer loop
    vertex 2.5811428003646615 2.363832025361716 3.9999999999999996
    vertex 2.3638320253617158 -2.5811428003646615 3.9999999999999996
    vertex 2.951335317169705 -1.8813877446254395 3.9999999999999996
  endloop
endfacet
facet normal -0.0 -0.0 1.0
  outer loop
    vertex 2.5811428003646615 2.363832025361716 3.9999999999999996
    vertex 2.951335317169705 -1.8813877446254395 3.9999999999999996
    vertex 3.104997239799193 1.6152374874424469 3.9999999999999996
  endloop
endfacet
facet normal -0.0 -0.0 1.0
  outer loop
    vertex 3.104997239799193 1.6152374874424469 3.9999999999999996
    vertex 2.951335317169705 -1.8813877446254395 3.9999999999999996
    vertex 3.3377099844247975 -1.0534192232302473 3.9999999999999996
  endloop
endfacet
facet normal -0.0 -0.0 1.0
  outer loop
    vertex 3.104997239799193 1.6152374874424469 3.9999999999999996
    vertex 3.3377099844247975 -1.0534192232302473 3.9999999999999996
    vertex 3.4172512485919606 0.7565671840601353 3.9999999999999996
  endloop
endfacet
facet normal -0.0 -0.0 1.0
  outer loop
    vertex 3.4172512485919606 0.7565671840601353 3.9999999999999996
    vertex 3.3377099844247975 -1.0534192232302473 3.9999999999999996
    vertex 3.496625232067888 -0.15366192262948722 3.9999999999999996
  endloop
endfacet
facet normal 0.7446829571557743 0.6674183795204709 0.0
  outer loop
    vertex 7.814358138339134 9.106909842848614 0.0
    vertex 9.905132051054757 6.774094703439549 12.999999999999998
    vertex 9.905132051054757 6.774094703439549 0.0
  endloop
endfacet
facet normal 0.7446829571557743 0.6674183795204709 0.0
  outer loop
    vertex 9.905132051054757 6.774094703439549 12.999999999999998
    vertex 7.814358138339134 9.106909842848614 0.0
    vertex 7.814358138339134 9.106909842848614 12.999999999999998
  endloop
endfacet
facet normal 0.8920490883854378 0.4519385178436435 0.0
  outer loop
    vertex 9.905132051054757 6.774094703439549 0.0
    vertex 11.320887583495674 3.9796362047118734 12.999999999999998
    vertex 11.320887583495674 3.9796362047118734 0.0
  endloop
endfacet
facet normal 0.8920490883854378 0.4519385178436435 0.0
  outer loop
    vertex 11.320887583495674 3.9796362047118734 12.999999999999998
    vertex 9.905132051054757 6.774094703439549 0.0
    vertex 9.905132051054757 6.774094703439549 12.999999999999998
  endloop
endfacet
facet normal 0.0 0.0 -1.0
  outer loop
    vertex -11.793994343051017 2.2139777406470564 0.0
    vertex -11.32088758349567 -3.979636204711879 0.0
    vertex -11.965143335772659 -0.9139720752928805 0.0
  endloop
endfacet
facet normal 0.0 0.0 -1.0
  outer loop
    vertex -11.32088758349567 -3.979636204711879 0.0
    vertex -11.793994343051017 2.2139777406470564 0.0
    vertex -10.819104126347641 5.19104863233311 0.0
  endloop
endfacet
facet normal 0.0 0.0 -1.0
  outer loop
    vertex -11.32088758349567 -3.979636204711879 0.0
    vertex -10.819104126347641 5.19104863233311 0.0
    vertex -9.905132051054759 -6.774094703439548 0.0
  endloop
endfacet
facet normal 0.0 0.0 -1.0
  outer loop
    vertex -9.905132051054759 -6.774094703439548 0.0
    vertex -10.819104126347641 5.19104863233311 0.0
    vertex -9.106909842848612 7.814358138339134 0.0
  endloop
endfacet
facet normal 0.0 0.0 -1.0
  outer loop
    vertex -9.905132051054759 -6.774094703439548 0.0
    vertex -9.106909842848612 7.814358138339134 0.0
    vertex -7.814358138339138 -9.106909842848612 0.0
  endloop
endfacet
facet normal 0.0 0.0 -1.0
  outer loop
    vertex -7.814358138339138 -9.106909842848612 0.0
    vertex -9.106909842848612 7.814358138339134 0.0
    vertex -6.774094703439549 9.905132051054757 0.0
  endloop
endfacet
facet normal 0.0 0.0 -1.0
  outer loop
    vertex -7.814358138339138 -9.106909842848612 0.0
    vertex -6.774094703439549 9.905132051054757 0.0
    vertex -5.19104863233311 -10.819104126347641 0.0
  endloop
endfacet
facet normal 0.0 0.0 -1.0
  outer loop
    vertex -5.19104863233311 -10.819104126347641 0.0
    vertex -6.774094703439549 9.905132051054757 0.0
    vertex -3.9796362047118796 11.320887583495669 0.0
  endloop
endfacet
facet normal 0.0 0.0 -1.0
  outer loop
    vertex -5.19104863233311 -10.819104126347641 0.0
    vertex -3.9796362047118796 11.320887583495669 0.0
    vertex -2.2139777406470627 -11.793994343051017 0.0
  endloop
endfacet
facet normal 0.0 0.0 -1.0
  outer loop
    vertex -2.2139777406470627 -11.793994343051017 0.0
    vertex -3.9796362047118796 11.320887583495669 0.0
    vertex -0.9139720752928833 11.965143335772659 0.0
  endloop
endfacet
facet normal 0.0 0.0 -1.0
  outer loop
    vertex -2.2139777406470627 -11.793994343051017 0.0
    vertex -0.9139720752928833 11.965143335772659 0.0
    vertex 0.913972075292879 -11.965143335772659 0.0
  endloop
endfacet
facet normal 0.0 0.0 -1.0
  outer loop
    vertex 0.913972075292879 -11.965143335772659 0.0
    vertex -0.9139720752928833 11.965143335772659 0.0
    vertex 2.2139777406470555 11.793994343051017 0.0
  endloop
endfacet
facet normal 0.0 0.0 -1.0
  outer loop
    vertex 0.913972075292879 -11.965143335772659 0.0
    vertex 2.2139777406470555 11.793994343051017 0.0
    vertex 3.9796362047118743 -11.320887583495674 0.0
  endloop
endfacet
facet normal 0.0 0.0 -1.0
  outer loop
    vertex 3.9796362047118743 -11.320887583495674 0.0
    vertex 2.2139777406470555 11.793994343051017 0.0
    vertex 5.191048632333109 10.819104126347643 0.0
  endloop
endfacet
facet normal 0.0 0.0 -1.0
  outer loop
    vertex 3.9796362047118743 -11.320887583495674 0.0
    vertex 5.191048632333109 10.819104126347643 0.0
    vertex 6.774094703439548 -9.905132051054759 0.0
  endloop
endfacet
facet normal 0.0 0.0 -1.0
  outer loop
    vertex 6.774094703439548 -9.905132051054759 0.0
    vertex 5.191048632333109 10.819104126347643 0.0
    vertex 7.814358138339134 9.106909842848614 0.0
  endloop
endfacet
facet normal 0.0 0.0 -1.0
  outer loop
    vertex 6.774094703439548 -9.905132051054759 0.0
    vertex 7.814358138339134 9.106909842848614 0.0
    vertex 9.106909842848612 -7.814358138339138 0.0
  endloop
endfacet
facet normal 0.0 0.0 -1.0
  outer loop
    vertex 9.106909842848612 -7.814358138339138 0.0
    vertex 7.814358138339134 9.106909842848614 0.0
    vertex 9.905132051054757 6.774094703439549 0.0
  endloop
endfacet
facet normal 0.0 0.0 -1.0
  outer loop
    vertex 9.106909842848612 -7.814358138339138 0.0
    vertex 9.905132051054757 6.774094703439549 0.0
    vertex 10.819104126347638 -5.191048632333116 0.0
  endloop
endfacet
facet normal 0.0 0.0 -1.0
  outer loop
    vertex 10.819104126347638 -5.191048632333116 0.0
    vertex 9.905132051054757 6.774094703439549 0.0
    vertex 11.320887583495674 3.9796362047118734 0.0
  endloop
endfacet
facet normal 0.0 0.0 -1.0
  outer loop
    vertex 10.819104126347638 -5.191048632333116 0.0
    vertex 11.320887583495674 3.9796362047118734 0.0
    vertex 11.793994343051017 -2.2139777406470587 0.0
  endloop
endfacet
facet normal 0.0 0.0 -1.0
  outer loop
    vertex 11.793994343051017 -2.2139777406470587 0.0
    vertex 11.320887583495674 3.9796362047118734 0.0
    vertex 11.965143335772659 0.9139720752928776 0.0
  endloop
endfacet
facet normal 0.3112051689019829 0.9503427501952588 0.0
  outer loop
    vertex 2.2139777406470555 11.793994343051017 12.999999999999998
    vertex 5.191048632333109 10.819104126347643 0.0
    vertex 2.2139777406470555 11.793994343051017 0.0
  endloop
endfacet
facet normal 0.3112051689019829 0.9503427501952588 0.0
  outer loop
    vertex 5.191048632333109 10.819104126347643 0.0
    vertex 2.2139777406470555 11.793994343051017 12.999999999999998
    vertex 5.191048632333109 10.819104126347643 12.999999999999998
  endloop
endfacet
facet normal 0.05463430679143742 0.998506430886361 0.0
  outer loop
    vertex -0.9139720752928833 11.965143335772659 12.999999999999998
    vertex 2.2139777406470555 11.793994343051017 0.0
    vertex -0.9139720752928833 11.965143335772659 0.0
  endloop
endfacet
facet normal 0.05463430679143742 0.998506430886361 0.0
  outer loop
    vertex 2.2139777406470555 11.793994343051017 0.0
    vertex -0.9139720752928833 11.965143335772659 12.999999999999998
    vertex 2.2139777406470555 11.793994343051017 12.999999999999998
  endloop
endfacet
facet normal 0.5465679130427178 0.8374147815940008 0.0
  outer loop
    vertex 5.191048632333109 10.819104126347643 12.999999999999998
    vertex 7.814358138339134 9.106909842848614 0.0
    vertex 5.191048632333109 10.819104126347643 0.0
  endloop
endfacet
facet normal 0.5465679130427178 0.8374147815940008 0.0
  outer loop
    vertex 7.814358138339134 9.106909842848614 0.0
    vertex 5.191048632333109 10.819104126347643 12.999999999999998
    vertex 7.814358138339134 9.106909842848614 12.999999999999998
  endloop
endfacet
facet normal -0.054634306791437375 -0.998506430886361 -0.0
  outer loop
    vertex 0.913972075292879 -11.965143335772659 12.999999999999998
    vertex -2.2139777406470627 -11.793994343051017 0.0
    vertex 0.913972075292879 -11.965143335772659 0.0
  endloop
endfacet
facet normal -0.054634306791437375 -0.998506430886361 -0.0
  outer loop
    vertex -2.2139777406470627 -11.793994343051017 0.0
    vertex 0.913972075292879 -11.965143335772659 12.999999999999998
    vertex -2.2139777406470627 -11.793994343051017 12.999999999999998
  endloop
endfacet
facet normal 0.20565979303948415 -0.9786235484224548 0.0
  outer loop
    vertex 3.9796362047118743 -11.320887583495674 12.999999999999998
    vertex 0.913972075292879 -11.965143335772659 0.0
    vertex 3.9796362047118743 -11.320887583495674 0.0
  endloop
endfacet
facet normal 0.20565979303948415 -0.9786235484224548 0.0
  outer loop
    vertex 0.913972075292879 -11.965143335772659 0.0
    vertex 3.9796362047118743 -11.320887583495674 12.999999999999998
    vertex 0.913972075292879 -11.965143335772659 12.999999999999998
  endloop
endfacet
facet normal -0.837414781594001 0.5465679130427177 0.0
  outer loop
    vertex -9.106909842848612 7.814358138339134 12.999999999999998
    vertex -10.819104126347641 5.19104863233311 0.0
    vertex -10.819104126347641 5.19104863233311 12.999999999999998
  endloop
endfacet
facet normal -0.837414781594001 0.5465679130427177 0.0
  outer loop
    vertex -10.819104126347641 5.19104863233311 0.0
    vertex -9.106909842848612 7.814358138339134 12.999999999999998
    vertex -9.106909842848612 7.814358138339134 0.0
  endloop
endfacet
facet normal -0.892049088385438 -0.4519385178436433 -0.0
  outer loop
    vertex -11.32088758349567 -3.979636204711879 12.999999999999998
    vertex -9.905132051054759 -6.774094703439548 0.0
    vertex -9.905132051054759 -6.774094703439548 12.999999999999998
  endloop
endfacet
facet normal -0.892049088385438 -0.4519385178436433 -0.0
  outer loop
    vertex -9.905132051054759 -6.774094703439548 0.0
    vertex -11.32088758349567 -3.979636204711879 12.999999999999998
    vertex -11.32088758349567 -3.979636204711879 0.0
  endloop
endfacet
facet normal 0.9786235484224548 0.2056597930394841 0.0
  outer loop
    vertex 11.320887583495674 3.9796362047118734 0.0
    vertex 11.965143335772659 0.9139720752928776 12.999999999999998
    vertex 11.965143335772659 0.9139720752928776 0.0
  endloop
endfacet
facet normal 0.9786235484224548 0.2056597930394841 0.0
  outer loop
    vertex 11.965143335772659 0.9139720752928776 12.999999999999998
    vertex 11.320887583495674 3.9796362047118734 0.0
    vertex 11.320887583495674 3.9796362047118734 12.999999999999998
  endloop
endfacet
facet normal 0.8374147815940011 -0.5465679130427176 0.0
  outer loop
    vertex 10.819104126347638 -5.191048632333116 0.0
    vertex 9.106909842848612 -7.814358138339138 12.999999999999998
    vertex 9.106909842848612 -7.814358138339138 0.0
  endloop
endfacet
facet normal 0.8374147815940011 -0.5465679130427176 0.0
  outer loop
    vertex 9.106909842848612 -7.814358138339138 12.999999999999998
    vertex 10.819104126347638 -5.191048632333116 0.0
    vertex 10.819104126347638 -5.191048632333116 12.999999999999998
  endloop
endfacet
facet normal 0.998506430886361 -0.05463430679143747 0.0
  outer loop
    vertex 11.965143335772659 0.9139720752928776 0.0
    vertex 11.793994343051017 -2.2139777406470587 12.999999999999998
    vertex 11.793994343051017 -2.2139777406470587 0.0
  endloop
endfacet
facet normal 0.998506430886361 -0.05463430679143747 0.0
  outer loop
    vertex 11.793994343051017 -2.2139777406470587 12.999999999999998
    vertex 11.965143335772659 0.9139720752928776 0.0
    vertex 11.965143335772659 0.9139720752928776 12.999999999999998
  endloop
endfacet
facet normal 0.6674183795204706 -0.7446829571557745 0.0
  outer loop
    vertex 9.106909842848612 -7.814358138339138 12.999999999999998
    vertex 6.774094703439548 -9.905132051054759 0.0
    vertex 9.106909842848612 -7.814358138339138 0.0
  endloop
endfacet
facet normal 0.6674183795204706 -0.7446829571557745 0.0
  outer loop
    vertex 6.774094703439548 -9.905132051054759 0.0
    vertex 9.106909842848612 -7.814358138339138 12.999999999999998
    vertex 6.774094703439548 -9.905132051054759 12.999999999999998
  endloop
endfacet
facet normal -0.6674183795204711 0.7446829571557742 0.0
  outer loop
    vertex -9.106909842848612 7.814358138339134 12.999999999999998
    vertex -6.774094703439549 9.905132051054757 0.0
    vertex -9.106909842848612 7.814358138339134 0.0
  endloop
endfacet
facet normal -0.6674183795204711 0.7446829571557742 0.0
  outer loop
    vertex -6.774094703439549 9.905132051054757 0.0
    vertex -9.106909842848612 7.814358138339134 12.999999999999998
    vertex -6.774094703439549 9.905132051054757 12.999999999999998
  endloop
endfacet
facet normal -0.4519385178436433 0.8920490883854382 0.0
  outer loop
    vertex -6.774094703439549 9.905132051054757 12.999999999999998
    vertex -3.9796362047118796 11.320887583495669 0.0
    vertex -6.774094703439549 9.905132051054757 0.0
  endloop
endfacet
facet normal -0.4519385178436433 0.8920490883854382 0.0
  outer loop
    vertex -3.9796362047118796 11.320887583495669 0.0
    vertex -6.774094703439549 9.905132051054757 12.999999999999998
    vertex -3.9796362047118796 11.320887583495669 12.999999999999998
  endloop
endfacet
facet normal -0.20565979303948534 0.9786235484224546 0.0
  outer loop
    vertex -3.9796362047118796 11.320887583495669 12.999999999999998
    vertex -0.9139720752928833 11.965143335772659 0.0
    vertex -3.9796362047118796 11.320887583495669 0.0
  endloop
endfacet
facet normal -0.20565979303948534 0.9786235484224546 0.0
  outer loop
    vertex -0.9139720752928833 11.965143335772659 0.0
    vertex -3.9796362047118796 11.320887583495669 12.999999999999998
    vertex -0.9139720752928833 11.965143335772659 12.999999999999998
  endloop
endfacet
facet normal -0.5465679130427175 -0.8374147815940012 -0.0
  outer loop
    vertex -5.19104863233311 -10.819104126347641 12.999999999999998
    vertex -7.814358138339138 -9.106909842848612 0.0
    vertex -5.19104863233311 -10.819104126347641 0.0
  endloop
endfacet
facet normal -0.5465679130427175 -0.8374147815940012 -0.0
  outer loop
    vertex -7.814358138339138 -9.106909842848612 0.0
    vertex -5.19104863233311 -10.819104126347641 12.999999999999998
    vertex -7.814358138339138 -9.106909842848612 12.999999999999998
  endloop
endfacet
facet normal -0.7446829571557745 -0.6674183795204706 -0.0
  outer loop
    vertex -9.905132051054759 -6.774094703439548 12.999999999999998
    vertex -7.814358138339138 -9.106909842848612 0.0
    vertex -7.814358138339138 -9.106909842848612 12.999999999999998
  endloop
endfacet
facet normal -0.7446829571557745 -0.6674183795204706 -0.0
  outer loop
    vertex -7.814358138339138 -9.106909842848612 0.0
    vertex -9.905132051054759 -6.774094703439548 12.999999999999998
    vertex -9.905132051054759 -6.774094703439548 0.0
  endloop
endfacet
facet normal -0.9786235484224546 -0.20565979303948476 -0.0
  outer loop
    vertex -11.965143335772659 -0.9139720752928805 12.999999999999998
    vertex -11.32088758349567 -3.979636204711879 0.0
    vertex -11.32088758349567 -3.979636204711879 12.999999999999998
  endloop
endfacet
facet normal -0.9786235484224546 -0.20565979303948476 -0.0
  outer loop
    vertex -11.32088758349567 -3.979636204711879 0.0
    vertex -11.965143335772659 -0.9139720752928805 12.999999999999998
    vertex -11.965143335772659 -0.9139720752928805 0.0
  endloop
endfacet
facet normal 0.4519385178436434 -0.892049088385438 0.0
  outer loop
    vertex 6.774094703439548 -9.905132051054759 12.999999999999998
    vertex 3.9796362047118743 -11.320887583495674 0.0
    vertex 6.774094703439548 -9.905132051054759 0.0
  endloop
endfacet
facet normal 0.4519385178436434 -0.892049088385438 0.0
  outer loop
    vertex 3.9796362047118743 -11.320887583495674 0.0
    vertex 6.774094703439548 -9.905132051054759 12.999999999999998
    vertex 3.9796362047118743 -11.320887583495674 12.999999999999998
  endloop
endfacet
facet normal -0.3112051689019843 -0.9503427501952585 -0.0
  outer loop
    vertex -2.2139777406470627 -11.793994343051017 12.999999999999998
    vertex -5.19104863233311 -10.819104126347641 0.0
    vertex -2.2139777406470627 -11.793994343051017 0.0
  endloop
endfacet
facet normal -0.3112051689019843 -0.9503427501952585 -0.0
  outer loop
    vertex -5.19104863233311 -10.819104126347641 0.0
    vertex -2.2139777406470627 -11.793994343051017 12.999999999999998
    vertex -5.19104863233311 -10.819104126347641 12.999999999999998
  endloop
endfacet
facet normal 0.9503427501952585 -0.3112051689019842 0.0
  outer loop
    vertex 11.793994343051017 -2.2139777406470587 0.0
    vertex 10.819104126347638 -5.191048632333116 12.999999999999998
    vertex 10.819104126347638 -5.191048632333116 0.0
  endloop
endfacet
facet normal 0.9503427501952585 -0.3112051689019842 0.0
  outer loop
    vertex 10.819104126347638 -5.191048632333116 12.999999999999998
    vertex 11.793994343051017 -2.2139777406470587 0.0
    vertex 11.793994343051017 -2.2139777406470587 12.999999999999998
  endloop
endfacet
facet normal -0.9503427501952588 0.31120516890198374 0.0
  outer loop
    vertex -10.819104126347641 5.19104863233311 12.999999999999998
    vertex -11.793994343051017 2.2139777406470564 0.0
    vertex -11.793994343051017 2.2139777406470564 12.999999999999998
  endloop
endfacet
facet normal -0.9503427501952588 0.31120516890198374 0.0
  outer loop
    vertex -11.793994343051017 2.2139777406470564 0.0
    vertex -10.819104126347641 5.19104863233311 12.999999999999998
    vertex -10.819104126347641 5.19104863233311 0.0
  endloop
endfacet
facet normal -0.998506430886361 0.05463430679143746 0.0
  outer loop
    vertex -11.793994343051017 2.2139777406470564 12.999999999999998
    vertex -11.965143335772659 -0.9139720752928805 0.0
    vertex -11.965143335772659 -0.9139720752928805 12.999999999999998
  endloop
endfacet
facet normal -0.998506430886361 0.05463430679143746 0.0
  outer loop
    vertex -11.965143335772659 -0.9139720752928805 0.0
    vertex -11.793994343051017 2.2139777406470564 12.999999999999998
    vertex -11.793994343051017 2.2139777406470564 0.0
  endloop
endfacet
facet normal 0.0 0.0 1.0
  outer loop
    vertex -11.32088758349567 -3.979636204711879 12.999999999999998
    vertex -11.793994343051017 2.2139777406470564 12.999999999999998
    vertex -11.965143335772659 -0.9139720752928805 12.999999999999998
  endloop
endfacet
facet normal 0.0 0.0 1.0
  outer loop
    vertex -11.793994343051017 2.2139777406470564 12.999999999999998
    vertex -11.32088758349567 -3.979636204711879 12.999999999999998
    vertex -10.819104126347641 5.19104863233311 12.999999999999998
  endloop
endfacet
facet normal 0.0 0.0 1.0
  outer loop
    vertex -10.819104126347641 5.19104863233311 12.999999999999998
    vertex -11.32088758349567 -3.979636204711879 12.999999999999998
    vertex -9.905132051054759 -6.774094703439548 12.999999999999998
  endloop
endfacet
facet normal 0.0 0.0 1.0
  outer loop
    vertex -10.819104126347641 5.19104863233311 12.999999999999998
    vertex -9.905132051054759 -6.774094703439548 12.999999999999998
    vertex -9.106909842848612 7.814358138339134 12.999999999999998
  endloop
endfacet
facet normal 0.0 0.0 1.0
  outer loop
    vertex -9.106909842848612 7.814358138339134 12.999999999999998
    vertex -9.905132051054759 -6.774094703439548 12.999999999999998
    vertex -7.814358138339138 -9.106909842848612 12.999999999999998
  endloop
endfacet
facet normal 0.0 0.0 1.0
  outer loop
    vertex -9.106909842848612 7.814358138339134 12.999999999999998
    vertex -7.814358138339138 -9.106909842848612 12.999999999999998
    vertex -6.774094703439549 9.905132051054757 12.999999999999998
  endloop
endfacet
facet normal 0.0 0.0 1.0
  outer loop
    vertex -6.774094703439549 9.905132051054757 12.999999999999998
    vertex -7.814358138339138 -9.106909842848612 12.999999999999998
    vertex -5.19104863233311 -10.819104126347641 12.999999999999998
  endloop
endfacet
facet normal 0.0 0.0 1.0
  outer loop
    vertex -6.774094703439549 9.905132051054757 12.999999999999998
    vertex -5.19104863233311 -10.819104126347641 12.999999999999998
    vertex -3.9796362047118796 11.320887583495669 12.999999999999998
  endloop
endfacet
facet normal 0.0 0.0 1.0
  outer loop
    vertex -3.9796362047118796 11.320887583495669 12.999999999999998
    vertex -5.19104863233311 -10.819104126347641 12.999999999999998
    vertex -3.496625232067888 0.1536619226294865 12.999999999999998
  endloop
endfacet
facet normal 0.0 0.0 1.0
  outer loop
    vertex -3.496625232067888 0.1536619226294865 12.999999999999998
    vertex -5.19104863233311 -10.819104126347641 12.999999999999998
    vertex -3.4172512485919606 -0.756567184060136 12.999999999999998
  endloop
endfacet
facet normal 0.0 0.0 1.0
  outer loop
    vertex -3.4172512485919606 -0.756567184060136 12.999999999999998
    vertex -5.19104863233311 -10.819104126347641 12.999999999999998
    vertex -2.2139777406470627 -11.793994343051017 12.999999999999998
  endloop
endfacet
facet normal 0.0 0.0 1.0
  outer loop
    vertex -3.4172512485919606 -0.756567184060136 12.999999999999998
    vertex -2.2139777406470627 -11.793994343051017 12.999999999999998
    vertex -3.104997239799193 -1.6152374874424487 12.999999999999998
  endloop
endfacet
facet normal 0.0 0.0 1.0
  outer loop
    vertex -3.104997239799193 -1.6152374874424487 12.999999999999998
    vertex -2.2139777406470627 -11.793994343051017 12.999999999999998
    vertex -2.5811428003646615 -2.3638320253617158 12.999999999999998
  endloop
endfacet
facet normal 0.0 0.0 1.0
  outer loop
    vertex -2.5811428003646615 -2.3638320253617158 12.999999999999998
    vertex -2.2139777406470627 -11.793994343051017 12.999999999999998
    vertex -1.8813877446254395 -2.951335317169705 12.999999999999998
  endloop
endfacet
facet normal 0.0 0.0 1.0
  outer loop
    vertex -1.8813877446254395 -2.951335317169705 12.999999999999998
    vertex -2.2139777406470627 -11.793994343051017 12.999999999999998
    vertex 0.913972075292879 -11.965143335772659 12.999999999999998
  endloop
endfacet
facet normal 0.0 0.0 1.0
  outer loop
    vertex -1.8813877446254395 -2.951335317169705 12.999999999999998
    vertex 0.913972075292879 -11.965143335772659 12.999999999999998
    vertex -1.0534192232302453 -3.3377099844247975 12.999999999999998
  endloop
endfacet
facet normal 0.0 0.0 1.0
  outer loop
    vertex -1.0534192232302453 -3.3377099844247975 12.999999999999998
    vertex 0.913972075292879 -11.965143335772659 12.999999999999998
    vertex -0.15366192262948827 -3.496625232067888 12.999999999999998
  endloop
endfacet
facet normal 0.0 0.0 1.0
  outer loop
    vertex -0.15366192262948827 -3.496625232067888 12.999999999999998
    vertex 0.913972075292879 -11.965143335772659 12.999999999999998
    vertex 0.7565671840601357 -3.4172512485919615 12.999999999999998
  endloop
endfacet
facet normal 0.0 0.0 1.0
  outer loop
    vertex 0.7565671840601357 -3.4172512485919615 12.999999999999998
    vertex 0.913972075292879 -11.965143335772659 12.999999999999998
    vertex 1.6152374874424469 -3.104997239799193 12.999999999999998
  endloop
endfacet
facet normal 0.0 0.0 1.0
  outer loop
    vertex 1.6152374874424469 -3.104997239799193 12.999999999999998
    vertex 0.913972075292879 -11.965143335772659 12.999999999999998
    vertex 3.9796362047118743 -11.320887583495674 12.999999999999998
  endloop
endfacet
facet normal 0.0 0.0 1.0
  outer loop
    vertex 1.6152374874424469 -3.104997239799193 12.999999999999998
    vertex 3.9796362047118743 -11.320887583495674 12.999999999999998
    vertex 2.3638320253617158 -2.5811428003646615 12.999999999999998
  endloop
endfacet
facet normal 0.0 0.0 1.0
  outer loop
    vertex 2.3638320253617158 -2.5811428003646615 12.999999999999998
    vertex 3.9796362047118743 -11.320887583495674 12.999999999999998
    vertex 2.951335317169705 -1.8813877446254395 12.999999999999998
  endloop
endfacet
facet normal 0.0 0.0 1.0
  outer loop
    vertex 2.951335317169705 -1.8813877446254395 12.999999999999998
    vertex 3.9796362047118743 -11.320887583495674 12.999999999999998
    vertex 3.3377099844247975 -1.0534192232302473 12.999999999999998
  endloop
endfacet
facet normal 0.0 0.0 1.0
  outer loop
    vertex 3.3377099844247975 -1.0534192232302473 12.999999999999998
    vertex 3.9796362047118743 -11.320887583495674 12.999999999999998
    vertex 3.496625232067888 -0.15366192262948722 12.999999999999998
  endloop
endfacet
facet normal 0.0 0.0 1.0
  outer loop
    vertex -3.9796362047118796 11.320887583495669 12.999999999999998
    vertex -3.3377099844247975 1.0534192232302453 12.999999999999998
    vertex -0.9139720752928833 11.965143335772659 12.999999999999998
  endloop
endfacet
facet normal 0.0 0.0 1.0
  outer loop
    vertex -3.3377099844247975 1.0534192232302453 12.999999999999998
    vertex -3.9796362047118796 11.320887583495669 12.999999999999998
    vertex -3.496625232067888 0.1536619226294865 12.999999999999998
  endloop
endfacet
facet normal 0.0 0.0 1.0
  outer loop
    vertex -0.9139720752928833 11.965143335772659 12.999999999999998
    vertex -3.3377099844247975 1.0534192232302453 12.999999999999998
    vertex -2.951335317169705 1.8813877446254383 12.999999999999998
  endloop
endfacet
facet normal 0.0 0.0 1.0
  outer loop
    vertex -0.9139720752928833 11.965143335772659 12.999999999999998
    vertex -2.951335317169705 1.8813877446254383 12.999999999999998
    vertex -2.363832025361716 2.5811428003646615 12.999999999999998
  endloop
endfacet
facet normal 0.0 0.0 1.0
  outer loop
    vertex -0.9139720752928833 11.965143335772659 12.999999999999998
    vertex -2.363832025361716 2.5811428003646615 12.999999999999998
    vertex -1.6152374874424487 3.1049972397991925 12.999999999999998
  endloop
endfacet
facet normal 0.0 0.0 1.0
  outer loop
    vertex -0.9139720752928833 11.965143335772659 12.999999999999998
    vertex -1.6152374874424487 3.1049972397991925 12.999999999999998
    vertex -0.7565671840601366 3.4172512485919606 12.999999999999998
  endloop
endfacet
facet normal 0.0 0.0 1.0
  outer loop
    vertex -0.9139720752928833 11.965143335772659 12.999999999999998
    vertex -0.7565671840601366 3.4172512485919606 12.999999999999998
    vertex 2.2139777406470555 11.793994343051017 12.999999999999998
  endloop
endfacet
facet normal 0.0 0.0 1.0
  outer loop
    vertex 2.2139777406470555 11.793994343051017 12.999999999999998
    vertex -0.7565671840601366 3.4172512485919606 12.999999999999998
    vertex 0.1536619226294865 3.496625232067888 12.999999999999998
  endloop
endfacet
facet normal 0.0 0.0 1.0
  outer loop
    vertex 2.2139777406470555 11.793994343051017 12.999999999999998
    vertex 0.1536619226294865 3.496625232067888 12.999999999999998
    vertex 1.0534192232302448 3.3377099844247975 12.999999999999998
  endloop
endfacet
facet normal 0.0 0.0 1.0
  outer loop
    vertex 2.2139777406470555 11.793994343051017 12.999999999999998
    vertex 1.0534192232302448 3.3377099844247975 12.999999999999998
    vertex 1.881387744625438 2.951335317169705 12.999999999999998
  endloop
endfacet
facet normal 0.0 0.0 1.0
  outer loop
    vertex 2.2139777406470555 11.793994343051017 12.999999999999998
    vertex 1.881387744625438 2.951335317169705 12.999999999999998
    vertex 2.5811428003646615 2.363832025361716 12.999999999999998
  endloop
endfacet
facet normal 0.0 0.0 1.0
  outer loop
    vertex 2.2139777406470555 11.793994343051017 12.999999999999998
    vertex 2.5811428003646615 2.363832025361716 12.999999999999998
    vertex 5.191048632333109 10.819104126347643 12.999999999999998
  endloop
endfacet
facet normal 0.0 0.0 1.0
  outer loop
    vertex 5.191048632333109 10.819104126347643 12.999999999999998
    vertex 2.5811428003646615 2.363832025361716 12.999999999999998
    vertex 3.104997239799193 1.6152374874424469 12.999999999999998
  endloop
endfacet
facet normal 0.0 0.0 1.0
  outer loop
    vertex 5.191048632333109 10.819104126347643 12.999999999999998
    vertex 3.104997239799193 1.6152374874424469 12.999999999999998
    vertex 3.4172512485919606 0.7565671840601353 12.999999999999998
  endloop
endfacet
facet normal 0.0 0.0 1.0
  outer loop
    vertex 5.191048632333109 10.819104126347643 12.999999999999998
    vertex 3.4172512485919606 0.7565671840601353 12.999999999999998
    vertex 3.496625232067888 -0.15366192262948722 12.999999999999998
  endloop
endfacet
facet normal 0.0 0.0 1.0
  outer loop
    vertex 5.191048632333109 10.819104126347643 12.999999999999998
    vertex 3.496625232067888 -0.15366192262948722 12.999999999999998
    vertex 3.9796362047118743 -11.320887583495674 12.999999999999998
  endloop
endfacet
facet normal 0.0 0.0 1.0
  outer loop
    vertex 5.191048632333109 10.819104126347643 12.999999999999998
    vertex 3.9796362047118743 -11.320887583495674 12.999999999999998
    vertex 6.774094703439548 -9.905132051054759 12.999999999999998
  endloop
endfacet
facet normal 0.0 0.0 1.0
  outer loop
    vertex 5.191048632333109 10.819104126347643 12.999999999999998
    vertex 6.774094703439548 -9.905132051054759 12.999999999999998
    vertex 7.814358138339134 9.106909842848614 12.999999999999998
  endloop
endfacet
facet normal 0.0 0.0 1.0
  outer loop
    vertex 7.814358138339134 9.106909842848614 12.999999999999998
    vertex 6.774094703439548 -9.905132051054759 12.999999999999998
    vertex 9.106909842848612 -7.814358138339138 12.999999999999998
  endloop
endfacet
facet normal 0.0 0.0 1.0
  outer loop
    vertex 7.814358138339134 9.106909842848614 12.999999999999998
    vertex 9.106909842848612 -7.814358138339138 12.999999999999998
    vertex 9.905132051054757 6.774094703439549 12.999999999999998
  endloop
endfacet
facet normal 0.0 0.0 1.0
  outer loop
    vertex 9.905132051054757 6.774094703439549 12.999999999999998
    vertex 9.106909842848612 -7.814358138339138 12.999999999999998
    vertex 10.819104126347638 -5.191048632333116 12.999999999999998
  endloop
endfacet
facet normal 0.0 0.0 1.0
  outer loop
    vertex 9.905132051054757 6.774094703439549 12.999999999999998
    vertex 10.819104126347638 -5.191048632333116 12.999999999999998
    vertex 11.320887583495674 3.9796362047118734 12.999999999999998
  endloop
endfacet
facet normal 0.0 0.0 1.0
  outer loop
    vertex 11.320887583495674 3.9796362047118734 12.999999999999998
    vertex 10.819104126347638 -5.191048632333116 12.999999999999998
    vertex 11.793994343051017 -2.2139777406470587 12.999999999999998
  endloop
endfacet
facet normal 0.0 0.0 1.0
  outer loop
    vertex 11.320887583495674 3.9796362047118734 12.999999999999998
    vertex 11.793994343051017 -2.2139777406470587 12.999999999999998
    vertex 11.965143335772659 0.9139720752928776 12.999999999999998
  endloop
endfacet
endsolid Project-17 Iambic Keyer V2
