solid Project-17 Iambic Keyer V2
facet normal -4.618910617966382e-16 0.0 -1.0
  outer loop
    vertex 101.16625078020255 275.26984665091305 0.0
    vertex 87.16625078020255 215.26984665091308 3.5194717870709642e-15
    vertex 87.16625078020255 275.26984665091305 3.5194717870709642e-15
  endloop
endfacet
facet normal -4.618910617966382e-16 0.0 -1.0
  outer loop
    vertex 87.16625078020255 215.26984665091308 3.5194717870709642e-15
    vertex 101.16625078020255 275.26984665091305 0.0
    vertex 101.16625078020255 215.26984665091308 0.0
  endloop
endfacet
facet normal -1.0 0.0 6.583579336687699e-16
  outer loop
    vertex 87.16625078020256 215.26984665091308 53.99999999999998
    vertex 87.16625078020255 236.6961883147834 23.883509936172608
    vertex 87.16625078020255 215.26984665091308 3.5194717870709642e-15
  endloop
endfacet
facet normal -1.0 0.0 6.583579336687699e-16
  outer loop
    vertex 87.16625078020255 236.6961883147834 23.883509936172608
    vertex 87.16625078020256 215.26984665091308 53.99999999999998
    vertex 87.16625078020255 237.85715827674946 24.934932427181607
  endloop
endfacet
facet normal -1.0 0.0 6.583579336687699e-16
  outer loop
    vertex 87.16625078020255 237.85715827674946 24.934932427181607
    vertex 87.16625078020256 215.26984665091308 53.99999999999998
    vertex 87.16625078020256 275.26984665091305 53.99999999999998
  endloop
endfacet
facet normal -1.0 0.0 6.583579336687699e-16
  outer loop
    vertex 87.16625078020255 215.26984665091308 3.5194717870709642e-15
    vertex 87.16625078020255 236.6961883147834 23.883509936172608
    vertex 87.16625078020255 235.8469056100968 22.567432660817058
  endloop
endfacet
facet normal -1.0 0.0 6.583579336687699e-16
  outer loop
    vertex 87.16625078020255 215.26984665091308 3.5194717870709642e-15
    vertex 87.16625078020255 235.8469056100968 22.567432660817058
    vertex 87.16625078020255 235.367187375508 21.07638909250991
  endloop
endfacet
facet normal -1.0 0.0 6.583579336687699e-16
  outer loop
    vertex 87.16625078020255 215.26984665091308 3.5194717870709642e-15
    vertex 87.16625078020255 235.367187375508 21.07638909250991
    vertex 87.16625078020255 235.2897256159324 19.511991386365292
  endloop
endfacet
facet normal -1.0 0.0 6.583579336687699e-16
  outer loop
    vertex 87.16625078020255 237.85715827674946 24.934932427181607
    vertex 87.16625078020256 275.26984665091305 53.99999999999998
    vertex 87.16625078020255 239.2506973116806 25.650047428639617
  endloop
endfacet
facet normal -1.0 0.0 6.583579336687699e-16
  outer loop
    vertex 87.16625078020255 239.2506973116806 25.650047428639617
    vertex 87.16625078020256 275.26984665091305 53.99999999999998
    vertex 87.16625078020255 240.78183803727836 25.980121034980684
  endloop
endfacet
facet normal -1.0 0.0 6.583579336687699e-16
  outer loop
    vertex 87.16625078020255 240.78183803727836 25.980121034980684
    vertex 87.16625078020256 275.26984665091305 53.99999999999998
    vertex 87.16625078020255 242.34623574342297 25.902659275405096
  endloop
endfacet
facet normal -1.0 0.0 6.583579336687699e-16
  outer loop
    vertex 87.16625078020255 242.34623574342297 25.902659275405096
    vertex 87.16625078020256 275.26984665091305 53.99999999999998
    vertex 87.16625078020255 243.83727931173013 25.42294104081632
  endloop
endfacet
facet normal -1.0 0.0 6.583579336687699e-16
  outer loop
    vertex 87.16625078020255 243.83727931173013 25.42294104081632
    vertex 87.16625078020256 275.26984665091305 53.99999999999998
    vertex 87.16625078020255 245.1533565870857 24.573658336129707
  endloop
endfacet
facet normal -1.0 0.0 6.583579336687699e-16
  outer loop
    vertex 87.16625078020255 245.1533565870857 24.573658336129707
    vertex 87.16625078020256 275.26984665091305 53.99999999999998
    vertex 87.16625078020255 246.2047790780947 23.41268837416363
  endloop
endfacet
facet normal -1.0 0.0 6.583579336687699e-16
  outer loop
    vertex 87.16625078020255 246.2047790780947 23.41268837416363
    vertex 87.16625078020256 275.26984665091305 53.99999999999998
    vertex 87.16625078020255 246.9198940795527 22.019149339232488
  endloop
endfacet
facet normal -1.0 0.0 6.583579336687699e-16
  outer loop
    vertex 87.16625078020255 246.9198940795527 22.019149339232488
    vertex 87.16625078020256 275.26984665091305 53.99999999999998
    vertex 87.16625078020255 247.24996768589375 20.48800861363471
  endloop
endfacet
facet normal -1.0 0.0 6.583579336687699e-16
  outer loop
    vertex 87.16625078020255 215.26984665091308 3.5194717870709642e-15
    vertex 87.16625078020255 238.70241399009603 14.577058959183688
    vertex 87.16625078020255 275.26984665091305 3.5194717870709642e-15
  endloop
endfacet
facet normal -1.0 0.0 6.583579336687699e-16
  outer loop
    vertex 87.16625078020255 238.70241399009603 14.577058959183688
    vertex 87.16625078020255 215.26984665091308 3.5194717870709642e-15
    vertex 87.16625078020255 237.38633671474045 15.426341663870296
  endloop
endfacet
facet normal -1.0 0.0 6.583579336687699e-16
  outer loop
    vertex 87.16625078020255 237.38633671474045 15.426341663870296
    vertex 87.16625078020255 215.26984665091308 3.5194717870709642e-15
    vertex 87.16625078020255 236.33491422373146 16.587311625836378
  endloop
endfacet
facet normal -1.0 0.0 6.583579336687699e-16
  outer loop
    vertex 87.16625078020255 236.33491422373146 16.587311625836378
    vertex 87.16625078020255 215.26984665091308 3.5194717870709642e-15
    vertex 87.16625078020255 235.61979922227349 17.980850660767516
  endloop
endfacet
facet normal -1.0 0.0 6.583579336687699e-16
  outer loop
    vertex 87.16625078020255 235.61979922227349 17.980850660767516
    vertex 87.16625078020255 215.26984665091308 3.5194717870709642e-15
    vertex 87.16625078020255 235.2897256159324 19.511991386365292
  endloop
endfacet
facet normal -1.0 0.0 6.583579336687699e-16
  outer loop
    vertex 87.16625078020255 275.26984665091305 3.5194717870709642e-15
    vertex 87.16625078020255 238.70241399009603 14.577058959183688
    vertex 87.16625078020255 240.1934575584032 14.09734072459491
  endloop
endfacet
facet normal -1.0 0.0 6.583579336687699e-16
  outer loop
    vertex 87.16625078020255 275.26984665091305 3.5194717870709642e-15
    vertex 87.16625078020255 240.1934575584032 14.09734072459491
    vertex 87.16625078020255 241.7578552645478 14.019878965019322
  endloop
endfacet
facet normal -1.0 0.0 6.583579336687699e-16
  outer loop
    vertex 87.16625078020255 275.26984665091305 3.5194717870709642e-15
    vertex 87.16625078020255 241.7578552645478 14.019878965019322
    vertex 87.16625078020255 243.28899599014557 14.349952571360388
  endloop
endfacet
facet normal -1.0 0.0 6.583579336687699e-16
  outer loop
    vertex 87.16625078020255 275.26984665091305 3.5194717870709642e-15
    vertex 87.16625078020255 243.28899599014557 14.349952571360388
    vertex 87.16625078020255 244.6825350250767 15.0650675728184
  endloop
endfacet
facet normal -1.0 0.0 6.583579336687699e-16
  outer loop
    vertex 87.16625078020255 275.26984665091305 3.5194717870709642e-15
    vertex 87.16625078020255 244.6825350250767 15.0650675728184
    vertex 87.16625078020255 245.84350498704276 16.116490063827396
  endloop
endfacet
facet normal -1.0 0.0 6.583579336687699e-16
  outer loop
    vertex 87.16625078020255 275.26984665091305 3.5194717870709642e-15
    vertex 87.16625078020255 245.84350498704276 16.116490063827396
    vertex 87.16625078020255 246.69278769172936 17.432567339182945
  endloop
endfacet
facet normal -1.0 0.0 6.583579336687699e-16
  outer loop
    vertex 87.16625078020255 275.26984665091305 3.5194717870709642e-15
    vertex 87.16625078020255 246.69278769172936 17.432567339182945
    vertex 87.16625078020255 247.1725059263182 18.923610907490094
  endloop
endfacet
facet normal -1.0 0.0 6.583579336687699e-16
  outer loop
    vertex 87.16625078020255 275.26984665091305 3.5194717870709642e-15
    vertex 87.16625078020255 247.1725059263182 18.923610907490094
    vertex 87.16625078020255 247.24996768589375 20.48800861363471
  endloop
endfacet
facet normal -1.0 0.0 6.583579336687699e-16
  outer loop
    vertex 87.16625078020255 275.26984665091305 3.5194717870709642e-15
    vertex 87.16625078020255 247.24996768589375 20.48800861363471
    vertex 87.16625078020256 275.26984665091305 53.99999999999998
  endloop
endfacet
facet normal 1.0 0.0 0.0
  outer loop
    vertex 101.16629651891085 220.3698467824139 44.399998533268196
    vertex 101.16595494638008 220.3698466509131 51.89999998541369
    vertex 101.16629651891087 217.72223579980482 44.399998533268196
  endloop
endfacet
facet normal 1.0 0.0 0.0
  outer loop
    vertex 101.16629651889606 273.06984651164794 44.400000000232446
    vertex 101.16595494638008 270.5698466509131 51.899999985413686
    vertex 101.16629651889606 270.56984651164794 44.40000000023244
  endloop
endfacet
facet normal 1.0 0.0 0.0
  outer loop
    vertex 101.16625078020255 215.26984665091308 0.0
    vertex 101.1671029721604 217.7220746758496 7.3999998746417095
    vertex 101.16625078020255 215.26984665091308 53.99999999999997
  endloop
endfacet
facet normal 1.0 0.0 0.0
  outer loop
    vertex 101.1671029721604 217.7220746758496 7.3999998746417095
    vertex 101.16625078020255 215.26984665091308 0.0
    vertex 101.16640088591093 220.36976150732696 4.40028412053456
  endloop
endfacet
facet normal 1.0 0.0 0.0
  outer loop
    vertex 101.16640088591093 220.36976150732696 4.40028412053456
    vertex 101.16625078020255 215.26984665091308 0.0
    vertex 101.16625078020255 275.26984665091305 0.0
  endloop
endfacet
facet normal 1.0 0.0 0.0
  outer loop
    vertex 101.1671029721604 217.7220746758496 7.3999998746417095
    vertex 101.16640088591093 220.36976150732696 4.40028412053456
    vertex 101.16725307786876 220.36960051487256 7.400283995176273
  endloop
endfacet
facet normal 1.0 0.0 0.0
  outer loop
    vertex 101.16640088591093 220.36976150732696 4.40028412053456
    vertex 101.16625078020255 275.26984665091305 0.0
    vertex 101.16924627269469 270.5689139412138 4.403303444236632
  endloop
endfacet
facet normal 1.0 0.0 0.0
  outer loop
    vertex 101.16924627269469 270.5689139412138 4.403303444236632
    vertex 101.16625078020255 275.26984665091305 0.0
    vertex 101.1701197831324 270.56901866302536 7.403303315238762
  endloop
endfacet
facet normal 1.0 0.0 0.0
  outer loop
    vertex 101.1701197831324 270.56901866302536 7.403303315238762
    vertex 101.16625078020255 275.26984665091305 0.0
    vertex 101.17026139028847 273.069212447415 7.403126521442715
  endloop
endfacet
facet normal 1.0 0.0 0.0
  outer loop
    vertex 101.17026139028847 273.069212447415 7.403126521442715
    vertex 101.16625078020255 275.26984665091305 0.0
    vertex 101.16629651889606 273.06984651164794 44.400000000232446
  endloop
endfacet
facet normal 1.0 0.0 0.0
  outer loop
    vertex 101.16625078020255 215.26984665091308 53.99999999999997
    vertex 101.16595494638008 220.3698466509131 51.89999998541369
    vertex 101.16625078020255 275.26984665091305 53.99999999999997
  endloop
endfacet
facet normal 1.0 0.0 0.0
  outer loop
    vertex 101.16595494638008 220.3698466509131 51.89999998541369
    vertex 101.16625078020255 215.26984665091308 53.99999999999997
    vertex 101.16629651891087 217.72223579980482 44.399998533268196
  endloop
endfacet
facet normal 1.0 0.0 0.0
  outer loop
    vertex 101.16629651891087 217.72223579980482 44.399998533268196
    vertex 101.16625078020255 215.26984665091308 53.99999999999997
    vertex 101.1671029721604 217.7220746758496 7.3999998746417095
  endloop
endfacet
facet normal 1.0 0.0 0.0
  outer loop
    vertex 101.16625078020255 275.26984665091305 53.99999999999997
    vertex 101.16595494638008 220.3698466509131 51.89999998541369
    vertex 101.16595494638008 270.5698466509131 51.899999985413686
  endloop
endfacet
facet normal 1.0 0.0 0.0
  outer loop
    vertex 101.16625078020255 275.26984665091305 53.99999999999997
    vertex 101.16595494638008 270.5698466509131 51.899999985413686
    vertex 101.16629651889606 273.06984651164794 44.400000000232446
  endloop
endfacet
facet normal 1.0 0.0 0.0
  outer loop
    vertex 101.16625078020255 275.26984665091305 53.99999999999997
    vertex 101.16629651889606 273.06984651164794 44.400000000232446
    vertex 101.16625078020255 275.26984665091305 0.0
  endloop
endfacet
facet normal -0.00029690529685566833 -4.79012750562098e-06 -0.9999999559121489
  outer loop
    vertex 111.15784218258764 273.06961257990224 21.70639023037356
    vertex 107.15250431636687 270.56951658415807 21.707591421003563
    vertex 107.1524369192548 273.0694862232281 21.707566546779848
  endloop
endfacet
facet normal -0.00029690529685566833 -4.79012750562098e-06 -0.9999999559121489
  outer loop
    vertex 107.15250431636687 270.56951658415807 21.707591421003563
    vertex 111.15784218258764 273.06961257990224 21.70639023037356
    vertex 111.1525043853606 270.5696244089036 21.706390871491063
  endloop
endfacet
facet normal 0.999999991198414 2.696046455985339e-05 0.00012990883448375242
  outer loop
    vertex 107.15429540781436 273.0694187793399 7.401482343536433
    vertex 107.15250431636687 270.56951658415807 21.707591421003563
    vertex 107.15436280492644 270.56944914026985 7.401507217760154
  endloop
endfacet
facet normal 0.999999991198414 2.696046455985339e-05 0.00012990883448375242
  outer loop
    vertex 107.15250431636687 270.56951658415807 21.707591421003563
    vertex 107.15429540781436 273.0694187793399 7.401482343536433
    vertex 107.1524369192548 273.0694862232281 21.707566546779848
  endloop
endfacet
facet normal 0.9999999948881775 0.00010018400516209356 -1.3667858240858911e-05
  outer loop
    vertex 89.71950213274377 220.37140557967095 4.402349544961861
    vertex 89.71832570352521 235.6213019823509 17.980645642893915
    vertex 89.71832570352521 235.29122837600983 19.511786368491688
  endloop
endfacet
facet normal 0.9999999948881775 0.00010018400516209356 -1.3667858240858911e-05
  outer loop
    vertex 89.71832570352521 235.6213019823509 17.980645642893915
    vertex 89.71950213274377 220.37140557967095 4.402349544961861
    vertex 89.71832570352521 236.33641698380887 16.587106607962774
  endloop
endfacet
facet normal 0.9999999948881775 0.00010018400516209356 -1.3667858240858911e-05
  outer loop
    vertex 89.71832570352521 236.33641698380887 16.587106607962774
    vertex 89.71950213274377 220.37140557967095 4.402349544961861
    vertex 89.71832570352521 237.38783947481787 15.426136645996694
  endloop
endfacet
facet normal 0.9999999948881775 0.00010018400516209356 -1.3667858240858911e-05
  outer loop
    vertex 89.71832570352521 237.38783947481787 15.426136645996694
    vertex 89.71950213274377 220.37140557967095 4.402349544961861
    vertex 89.71832570352521 238.70391675017345 14.576853941310086
  endloop
endfacet
facet normal 0.9999999948881775 0.00010018400516209356 -1.3667858240858911e-05
  outer loop
    vertex 89.71832570352521 238.70391675017345 14.576853941310086
    vertex 89.71950213274377 220.37140557967095 4.402349544961861
    vertex 89.71832570352521 240.1949603184806 14.097135706721307
  endloop
endfacet
facet normal 0.9999999948881775 0.00010018400516209356 -1.3667858240858911e-05
  outer loop
    vertex 89.71832570352521 240.1949603184806 14.097135706721307
    vertex 89.71950213274377 220.37140557967095 4.402349544961861
    vertex 89.71188404654335 270.57036976139216 4.40574646207276
  endloop
endfacet
facet normal 0.9999999948881775 0.00010018400516209356 -1.3667858240858911e-05
  outer loop
    vertex 89.71832570352521 240.1949603184806 14.097135706721307
    vertex 89.71188404654335 270.57036976139216 4.40574646207276
    vertex 89.71832570352521 241.75935802462521 14.01967394714572
  endloop
endfacet
facet normal 0.9999999948881775 0.00010018400516209356 -1.3667858240858911e-05
  outer loop
    vertex 89.71832570352521 241.75935802462521 14.01967394714572
    vertex 89.71188404654335 270.57036976139216 4.40574646207276
    vertex 89.71832570352521 243.29049875022298 14.349747553486788
  endloop
endfacet
facet normal 0.9999999948881775 0.00010018400516209356 -1.3667858240858911e-05
  outer loop
    vertex 89.71832570352521 243.29049875022298 14.349747553486788
    vertex 89.71188404654335 270.57036976139216 4.40574646207276
    vertex 89.71832570352521 244.68403778515412 15.064862554944797
  endloop
endfacet
facet normal 0.9999999948881775 0.00010018400516209356 -1.3667858240858911e-05
  outer loop
    vertex 89.71832570352521 244.68403778515412 15.064862554944797
    vertex 89.71188404654335 270.57036976139216 4.40574646207276
    vertex 89.71832570352521 245.84500774712018 16.116285045953795
  endloop
endfacet
facet normal 0.9999999948881775 0.00010018400516209356 -1.3667858240858911e-05
  outer loop
    vertex 89.71832570352521 245.84500774712018 16.116285045953795
    vertex 89.71188404654335 270.57036976139216 4.40574646207276
    vertex 89.71832570352521 246.69429045180678 17.432362321309345
  endloop
endfacet
facet normal 0.9999999948881775 0.00010018400516209356 -1.3667858240858911e-05
  outer loop
    vertex 89.71832570352521 246.69429045180678 17.432362321309345
    vertex 89.71188404654335 270.57036976139216 4.40574646207276
    vertex 89.71832570352521 247.17400868639558 18.92340588961649
  endloop
endfacet
facet normal 0.9999999948881775 0.00010018400516209356 -1.3667858240858911e-05
  outer loop
    vertex 89.71832570352521 247.17400868639558 18.92340588961649
    vertex 89.71188404654335 270.57036976139216 4.40574646207276
    vertex 89.71832570352521 247.25147044597117 20.48780359576111
  endloop
endfacet
facet normal 0.9999999948881775 0.00010018400516209356 -1.3667858240858911e-05
  outer loop
    vertex 89.71832570352521 247.25147044597117 20.48780359576111
    vertex 89.71188404654335 270.57036976139216 4.40574646207276
    vertex 89.71671148771159 270.570133444624 51.897124918933514
  endloop
endfacet
facet normal 0.9999999948881775 0.00010018400516209356 -1.3667858240858911e-05
  outer loop
    vertex 89.71671148771159 220.37013344462395 51.89712491893351
    vertex 89.71832570352521 237.85866103682687 24.934727409308003
    vertex 89.71671148771159 270.570133444624 51.897124918933514
  endloop
endfacet
facet normal 0.9999999948881775 0.00010018400516209356 -1.3667858240858911e-05
  outer loop
    vertex 89.71832570352521 237.85866103682687 24.934727409308003
    vertex 89.71671148771159 220.37013344462395 51.89712491893351
    vertex 89.71832570352521 236.6976910748608 23.883304918299007
  endloop
endfacet
facet normal 0.9999999948881775 0.00010018400516209356 -1.3667858240858911e-05
  outer loop
    vertex 89.71832570352521 236.6976910748608 23.883304918299007
    vertex 89.71671148771159 220.37013344462395 51.89712491893351
    vertex 89.71950213274377 220.37140557967095 4.402349544961861
  endloop
endfacet
facet normal 0.9999999948881775 0.00010018400516209356 -1.3667858240858911e-05
  outer loop
    vertex 89.71832570352521 236.6976910748608 23.883304918299007
    vertex 89.71950213274377 220.37140557967095 4.402349544961861
    vertex 89.71832570352521 235.8484083701742 22.567227642943458
  endloop
endfacet
facet normal 0.9999999948881775 0.00010018400516209356 -1.3667858240858911e-05
  outer loop
    vertex 89.71832570352521 235.8484083701742 22.567227642943458
    vertex 89.71950213274377 220.37140557967095 4.402349544961861
    vertex 89.71832570352521 235.36869013558538 21.07618407463631
  endloop
endfacet
facet normal 0.9999999948881775 0.00010018400516209356 -1.3667858240858911e-05
  outer loop
    vertex 89.71832570352521 235.36869013558538 21.07618407463631
    vertex 89.71950213274377 220.37140557967095 4.402349544961861
    vertex 89.71832570352521 235.29122837600983 19.511786368491688
  endloop
endfacet
facet normal 0.9999999948881775 0.00010018400516209356 -1.3667858240858911e-05
  outer loop
    vertex 89.71671148771159 270.570133444624 51.897124918933514
    vertex 89.71832570352521 237.85866103682687 24.934727409308003
    vertex 89.71832570352521 239.252200071758 25.649842410766016
  endloop
endfacet
facet normal 0.9999999948881775 0.00010018400516209356 -1.3667858240858911e-05
  outer loop
    vertex 89.71671148771159 270.570133444624 51.897124918933514
    vertex 89.71832570352521 239.252200071758 25.649842410766016
    vertex 89.71832570352521 240.78334079735578 25.979916017107087
  endloop
endfacet
facet normal 0.9999999948881775 0.00010018400516209356 -1.3667858240858911e-05
  outer loop
    vertex 89.71671148771159 270.570133444624 51.897124918933514
    vertex 89.71832570352521 240.78334079735578 25.979916017107087
    vertex 89.71832570352521 242.34773850350038 25.9024542575315
  endloop
endfacet
facet normal 0.9999999948881775 0.00010018400516209356 -1.3667858240858911e-05
  outer loop
    vertex 89.71671148771159 270.570133444624 51.897124918933514
    vertex 89.71832570352521 242.34773850350038 25.9024542575315
    vertex 89.71832570352521 243.83878207180754 25.42273602294272
  endloop
endfacet
facet normal 0.9999999948881775 0.00010018400516209356 -1.3667858240858911e-05
  outer loop
    vertex 89.71671148771159 270.570133444624 51.897124918933514
    vertex 89.71832570352521 243.83878207180754 25.42273602294272
    vertex 89.71832570352521 245.15485934716312 24.573453318256103
  endloop
endfacet
facet normal 0.9999999948881775 0.00010018400516209356 -1.3667858240858911e-05
  outer loop
    vertex 89.71671148771159 270.570133444624 51.897124918933514
    vertex 89.71832570352521 245.15485934716312 24.573453318256103
    vertex 89.71832570352521 246.20628183817212 23.41248335629003
  endloop
endfacet
facet normal 0.9999999948881775 0.00010018400516209356 -1.3667858240858911e-05
  outer loop
    vertex 89.71671148771159 270.570133444624 51.897124918933514
    vertex 89.71832570352521 246.20628183817212 23.41248335629003
    vertex 89.71832570352521 246.92139683963012 22.018944321358884
  endloop
endfacet
facet normal 0.9999999948881775 0.00010018400516209356 -1.3667858240858911e-05
  outer loop
    vertex 89.71671148771159 270.570133444624 51.897124918933514
    vertex 89.71832570352521 246.92139683963012 22.018944321358884
    vertex 89.71832570352521 247.25147044597117 20.48780359576111
  endloop
endfacet
facet normal 9.861127415144834e-05 -6.179321682125767e-21 -0.9999999951379084
  outer loop
    vertex 89.71671148771159 270.570133444624 51.897124918933514
    vertex 101.16595494638008 220.3698466509131 51.89999998541369
    vertex 89.71671148771159 220.37013344462395 51.89712491893351
  endloop
endfacet
facet normal 9.861127415144834e-05 -6.179321682125767e-21 -0.9999999951379084
  outer loop
    vertex 101.16595494638008 220.3698466509131 51.89999998541369
    vertex 89.71671148771159 270.570133444624 51.897124918933514
    vertex 101.16595494638008 270.5698466509131 51.899999985413686
  endloop
endfacet
facet normal 0.999999997968636 1.8907529244271472e-05 6.087062911594434e-05
  outer loop
    vertex 107.16403810817398 220.3697676275819 7.3983891194792015
    vertex 107.16323597618621 217.7223350269905 21.398382347959075
    vertex 107.164088167758 217.72219132157096 7.398381603612748
  endloop
endfacet
facet normal 0.999999997968636 1.8907529244271472e-05 6.087062911594434e-05
  outer loop
    vertex 107.16323597618621 217.7223350269905 21.398382347959075
    vertex 107.16403810817398 220.3697676275819 7.3983891194792015
    vertex 107.1631859166022 220.36991133300137 21.398389863825518
  endloop
endfacet
facet normal 7.779217882890756e-16 0.0 1.0
  outer loop
    vertex 101.16625078020255 215.26984665091308 53.99999999999997
    vertex 87.16625078020256 275.26984665091305 53.99999999999998
    vertex 87.16625078020256 215.26984665091308 53.99999999999998
  endloop
endfacet
facet normal 7.779217882890756e-16 0.0 1.0
  outer loop
    vertex 87.16625078020256 275.26984665091305 53.99999999999998
    vertex 101.16625078020255 215.26984665091308 53.99999999999997
    vertex 101.16625078020255 275.26984665091305 53.99999999999997
  endloop
endfacet
facet normal -0.0002874475748090517 -4.032937915293813e-05 -0.9999999578737155
  outer loop
    vertex 101.17026139028847 273.069212447415 7.403126521442715
    vertex 107.15436280492644 270.56944914026985 7.401507217760154
    vertex 101.1701197831324 270.56901866302536 7.403303315238762
  endloop
endfacet
facet normal -0.0002874475748090517 -4.032937915293813e-05 -0.9999999578737155
  outer loop
    vertex 107.15436280492644 270.56944914026985 7.401507217760154
    vertex 101.17026139028847 273.069212447415 7.403126521442715
    vertex 107.15429540781436 273.0694187793399 7.401482343536433
  endloop
endfacet
facet normal 0.0 1.0 0.0
  outer loop
    vertex 87.16625078020255 275.26984665091305 3.5194717870709642e-15
    vertex 101.16625078020255 275.26984665091305 53.99999999999997
    vertex 101.16625078020255 275.26984665091305 0.0
  endloop
endfacet
facet normal 0.0 1.0 0.0
  outer loop
    vertex 101.16625078020255 275.26984665091305 53.99999999999997
    vertex 87.16625078020255 275.26984665091305 3.5194717870709642e-15
    vertex 87.16625078020256 275.26984665091305 53.99999999999998
  endloop
endfacet
facet normal -4.034060036546383e-31 0.8896931024782402 0.456559068908552
  outer loop
    vertex 87.16625078020255 236.33491422373146 16.587311625836378
    vertex 89.71832570352521 235.6213019823509 17.980645642893915
    vertex 89.71832570352521 236.33641698380887 16.587106607962774
  endloop
endfacet
facet normal -4.034060036546383e-31 0.8896931024782402 0.456559068908552
  outer loop
    vertex 89.71832570352521 235.6213019823509 17.980645642893915
    vertex 87.16625078020255 236.33491422373146 16.587311625836378
    vertex 87.16625078020255 235.61979922227349 17.980850660767516
  endloop
endfacet
facet normal 7.4241691625743714e-31 -0.5422172938636491 -0.8402383032421107
  outer loop
    vertex 89.71832570352521 245.15485934716312 24.573453318256103
    vertex 87.16625078020255 243.83727931173013 25.42294104081632
    vertex 87.16625078020255 245.1533565870857 24.573658336129707
  endloop
endfacet
facet normal 7.4241691625743714e-31 -0.5422172938636491 -0.8402383032421107
  outer loop
    vertex 87.16625078020255 243.83727931173013 25.42294104081632
    vertex 89.71832570352521 245.15485934716312 24.573453318256103
    vertex 89.71832570352521 243.83878207180754 25.42273602294272
  endloop
endfacet
facet normal -6.549187917537029e-31 -0.6712717151029923 0.7412113629071584
  outer loop
    vertex 89.71832570352521 244.68403778515412 15.064862554944797
    vertex 87.16625078020255 245.84350498704276 16.116490063827396
    vertex 87.16625078020255 244.6825350250767 15.0650675728184
  endloop
endfacet
facet normal -6.549187917537029e-31 -0.6712717151029923 0.7412113629071584
  outer loop
    vertex 87.16625078020255 245.84350498704276 16.116490063827396
    vertex 89.71832570352521 244.68403778515412 15.064862554944797
    vertex 89.71832570352521 245.84500774712018 16.116285045953795
  endloop
endfacet
facet normal -2.706155170863067e-31 -0.9519440395747142 0.3062720122998101
  outer loop
    vertex 89.71832570352521 247.17400868639558 18.92340588961649
    vertex 87.16625078020255 246.69278769172936 17.432567339182945
    vertex 89.71832570352521 246.69429045180678 17.432362321309345
  endloop
endfacet
facet normal -2.706155170863067e-31 -0.9519440395747142 0.3062720122998101
  outer loop
    vertex 87.16625078020255 246.69278769172936 17.432567339182945
    vertex 89.71832570352521 247.17400868639558 18.92340588961649
    vertex 87.16625078020255 247.1725059263182 18.923610907490094
  endloop
endfacet
facet normal 4.7909181204717375e-31 0.8402383032421085 -0.5422172938636526
  outer loop
    vertex 87.16625078020255 235.8469056100968 22.567432660817058
    vertex 89.71832570352521 236.6976910748608 23.883304918299007
    vertex 89.71832570352521 235.8484083701742 22.567227642943458
  endloop
endfacet
facet normal 4.7909181204717375e-31 0.8402383032421085 -0.5422172938636526
  outer loop
    vertex 89.71832570352521 236.6976910748608 23.883304918299007
    vertex 87.16625078020255 235.8469056100968 22.567432660817058
    vertex 87.16625078020255 236.6961883147834 23.883509936172608
  endloop
endfacet
facet normal -0.00021739845630411485 -7.632500577246653e-05 -0.9999999734562022
  outer loop
    vertex 111.1631858169809 220.36995600244637 21.397310473914118
    vertex 107.16323597618621 217.7223350269905 21.398382347959075
    vertex 107.1631859166022 220.36991133300137 21.398389863825518
  endloop
endfacet
facet normal -0.00021739845630411485 -7.632500577246653e-05 -0.9999999734562022
  outer loop
    vertex 107.16323597618621 217.7223350269905 21.398382347959075
    vertex 111.1631858169809 220.36995600244637 21.397310473914118
    vertex 111.16318584255922 217.7277432380164 21.397722147524927
  endloop
endfacet
facet normal -1.8619896684372653e-31 0.9775437274027823 0.2107326766675617
  outer loop
    vertex 87.16625078020255 235.61979922227349 17.980850660767516
    vertex 89.71832570352521 235.29122837600983 19.511786368491688
    vertex 89.71832570352521 235.6213019823509 17.980645642893915
  endloop
endfacet
facet normal -1.8619896684372653e-31 0.9775437274027823 0.2107326766675617
  outer loop
    vertex 89.71832570352521 235.29122837600983 19.511786368491688
    vertex 87.16625078020255 235.61979922227349 17.980850660767516
    vertex 87.16625078020255 235.2897256159324 19.511991386365292
  endloop
endfacet
facet normal 4.034060036546577e-31 -0.8896931024782287 -0.45655906890857406
  outer loop
    vertex 89.71832570352521 246.20628183817212 23.41248335629003
    vertex 87.16625078020255 246.9198940795527 22.019149339232488
    vertex 89.71832570352521 246.92139683963012 22.018944321358884
  endloop
endfacet
facet normal 4.034060036546577e-31 -0.8896931024782287 -0.45655906890857406
  outer loop
    vertex 87.16625078020255 246.9198940795527 22.019149339232488
    vertex 89.71832570352521 246.20628183817212 23.41248335629003
    vertex 87.16625078020255 246.2047790780947 23.41268837416363
  endloop
endfacet
facet normal 8.346934685205909e-05 -6.390400450810777e-05 0.9999999944745732
  outer loop
    vertex 89.71950213274377 220.37140557967095 4.402349544961861
    vertex 101.16924627269469 270.5689139412138 4.403303444236632
    vertex 89.71188404654335 270.57036976139216 4.40574646207276
  endloop
endfacet
facet normal 8.346934685205909e-05 -6.390400450810777e-05 0.9999999944745732
  outer loop
    vertex 101.16924627269469 270.5689139412138 4.403303444236632
    vertex 89.71950213274377 220.37140557967095 4.402349544961861
    vertex 101.16640088591093 220.36976150732696 4.40028412053456
  endloop
endfacet
facet normal -3.2603362878558175e-05 0.9999999994548718 5.222773725386471e-06
  outer loop
    vertex 89.71950213274377 220.37140557967095 4.402349544961861
    vertex 101.16725307786876 220.36960051487256 7.400283995176273
    vertex 101.16640088591093 220.36976150732696 4.40028412053456
  endloop
endfacet
facet normal -3.2603362878558175e-05 0.9999999994548718 5.222773725386471e-06
  outer loop
    vertex 101.16725307786876 220.36960051487256 7.400283995176273
    vertex 89.71950213274377 220.37140557967095 4.402349544961861
    vertex 89.71671148771159 220.37013344462395 51.89712491893351
  endloop
endfacet
facet normal -3.2603362878558175e-05 0.9999999994548718 5.222773725386471e-06
  outer loop
    vertex 101.16725307786876 220.36960051487256 7.400283995176273
    vertex 89.71671148771159 220.37013344462395 51.89712491893351
    vertex 107.1631859166022 220.36991133300137 21.398389863825518
  endloop
endfacet
facet normal -3.2603362878558175e-05 0.9999999994548718 5.222773725386471e-06
  outer loop
    vertex 107.1631859166022 220.36991133300137 21.398389863825518
    vertex 89.71671148771159 220.37013344462395 51.89712491893351
    vertex 101.16629651891085 220.3698467824139 44.399998533268196
  endloop
endfacet
facet normal -3.2603362878558175e-05 0.9999999994548718 5.222773725386471e-06
  outer loop
    vertex 101.16629651891085 220.3698467824139 44.399998533268196
    vertex 89.71671148771159 220.37013344462395 51.89712491893351
    vertex 101.16595494638008 220.3698466509131 51.89999998541369
  endloop
endfacet
facet normal -3.2603362878558175e-05 0.9999999994548718 5.222773725386471e-06
  outer loop
    vertex 107.1631859166022 220.36991133300137 21.398389863825518
    vertex 111.15107251839427 220.36985080389186 44.40010009749855
    vertex 111.1631858169809 220.36995600244637 21.397310473914118
  endloop
endfacet
facet normal -3.2603362878558175e-05 0.9999999994548718 5.222773725386471e-06
  outer loop
    vertex 111.15107251839427 220.36985080389186 44.40010009749855
    vertex 107.1631859166022 220.36991133300137 21.398389863825518
    vertex 101.16629651891085 220.3698467824139 44.399998533268196
  endloop
endfacet
facet normal -3.2603362878558175e-05 0.9999999994548718 5.222773725386471e-06
  outer loop
    vertex 107.1631859166022 220.36991133300137 21.398389863825518
    vertex 107.16403810817398 220.3697676275819 7.3983891194792015
    vertex 101.16725307786876 220.36960051487256 7.400283995176273
  endloop
endfacet
facet normal 7.861141381066938e-31 0.45655906890856335 -0.8896931024782343
  outer loop
    vertex 89.71832570352521 239.252200071758 25.649842410766016
    vertex 87.16625078020255 237.85715827674946 24.934932427181607
    vertex 87.16625078020255 239.2506973116806 25.650047428639617
  endloop
endfacet
facet normal 7.861141381066938e-31 0.45655906890856335 -0.8896931024782343
  outer loop
    vertex 87.16625078020255 237.85715827674946 24.934932427181607
    vertex 89.71832570352521 239.252200071758 25.649842410766016
    vertex 89.71832570352521 237.85866103682687 24.934727409308003
  endloop
endfacet
facet normal 8.824978157018296e-31 -0.04945479923612866 -0.9987763627722246
  outer loop
    vertex 89.71832570352521 242.34773850350038 25.9024542575315
    vertex 87.16625078020255 240.78183803727836 25.980121034980684
    vertex 87.16625078020255 242.34623574342297 25.902659275405096
  endloop
endfacet
facet normal 8.824978157018296e-31 -0.04945479923612866 -0.9987763627722246
  outer loop
    vertex 87.16625078020255 240.78183803727836 25.980121034980684
    vertex 89.71832570352521 242.34773850350038 25.9024542575315
    vertex 89.71832570352521 240.78334079735578 25.979916017107087
  endloop
endfacet
facet normal 2.7061551708630626e-31 0.9519440395747145 -0.3062720122998096
  outer loop
    vertex 87.16625078020255 235.367187375508 21.07638909250991
    vertex 89.71832570352521 235.8484083701742 22.567227642943458
    vertex 89.71832570352521 235.36869013558538 21.07618407463631
  endloop
endfacet
facet normal 2.7061551708630626e-31 0.9519440395747145 -0.3062720122998096
  outer loop
    vertex 89.71832570352521 235.8484083701742 22.567227642943458
    vertex 87.16625078020255 235.367187375508 21.07638909250991
    vertex 87.16625078020255 235.8469056100968 22.567432660817058
  endloop
endfacet
facet normal -8.824978157018296e-31 0.04945479923612866 0.9987763627722246
  outer loop
    vertex 89.71832570352521 240.1949603184806 14.097135706721307
    vertex 87.16625078020255 241.7578552645478 14.019878965019322
    vertex 87.16625078020255 240.1934575584032 14.09734072459491
  endloop
endfacet
facet normal -8.824978157018296e-31 0.04945479923612866 0.9987763627722246
  outer loop
    vertex 87.16625078020255 241.7578552645478 14.019878965019322
    vertex 89.71832570352521 240.1949603184806 14.097135706721307
    vertex 89.71832570352521 241.75935802462521 14.01967394714572
  endloop
endfacet
facet normal 5.931215879764511e-31 -0.7412113629071644 -0.6712717151029857
  outer loop
    vertex 89.71832570352521 245.15485934716312 24.573453318256103
    vertex 87.16625078020255 246.2047790780947 23.41268837416363
    vertex 89.71832570352521 246.20628183817212 23.41248335629003
  endloop
endfacet
facet normal 5.931215879764511e-31 -0.7412113629071644 -0.6712717151029857
  outer loop
    vertex 87.16625078020255 246.2047790780947 23.41268837416363
    vertex 89.71832570352521 245.15485934716312 24.573453318256103
    vertex 87.16625078020255 245.1533565870857 24.573658336129707
  endloop
endfacet
facet normal -4.7909181204717375e-31 -0.8402383032421085 0.5422172938636526
  outer loop
    vertex 89.71832570352521 246.69429045180678 17.432362321309345
    vertex 87.16625078020255 245.84350498704276 16.116490063827396
    vertex 89.71832570352521 245.84500774712018 16.116285045953795
  endloop
endfacet
facet normal -4.7909181204717375e-31 -0.8402383032421085 0.5422172938636526
  outer loop
    vertex 87.16625078020255 245.84350498704276 16.116490063827396
    vertex 89.71832570352521 246.69429045180678 17.432362321309345
    vertex 87.16625078020255 246.69278769172936 17.432567339182945
  endloop
endfacet
facet normal 0.0005688318340313419 -0.999999835234599 7.720828617287625e-05
  outer loop
    vertex 111.15107254353114 217.7297057909864 44.40051938878668
    vertex 107.16323597618621 217.7223350269905 21.398382347959075
    vertex 111.16318584255922 217.7277432380164 21.397722147524927
  endloop
endfacet
facet normal 0.0005688318340313419 -0.999999835234599 7.720828617287625e-05
  outer loop
    vertex 107.16323597618621 217.7223350269905 21.398382347959075
    vertex 111.15107254353114 217.7297057909864 44.40051938878668
    vertex 101.16629651891087 217.72223579980482 44.399998533268196
  endloop
endfacet
facet normal 0.0005688318340313419 -0.999999835234599 7.720828617287625e-05
  outer loop
    vertex 107.16323597618621 217.7223350269905 21.398382347959075
    vertex 101.1671029721604 217.7220746758496 7.3999998746417095
    vertex 107.164088167758 217.72219132157096 7.398381603612748
  endloop
endfacet
facet normal 0.0005688318340313419 -0.999999835234599 7.720828617287625e-05
  outer loop
    vertex 101.1671029721604 217.7220746758496 7.3999998746417095
    vertex 107.16323597618621 217.7223350269905 21.398382347959075
    vertex 101.16629651891087 217.72223579980482 44.399998533268196
  endloop
endfacet
facet normal 0.0 -1.0 0.0
  outer loop
    vertex 101.16625078020255 215.26984665091308 53.99999999999997
    vertex 87.16625078020255 215.26984665091308 3.5194717870709642e-15
    vertex 101.16625078020255 215.26984665091308 0.0
  endloop
endfacet
facet normal 0.0 -1.0 0.0
  outer loop
    vertex 87.16625078020255 215.26984665091308 3.5194717870709642e-15
    vertex 101.16625078020255 215.26984665091308 53.99999999999997
    vertex 87.16625078020256 215.26984665091308 53.99999999999998
  endloop
endfacet
facet normal 4.3697221849248524e-32 0.9987763627722254 -0.049454799236114476
  outer loop
    vertex 87.16625078020255 235.2897256159324 19.511991386365292
    vertex 89.71832570352521 235.36869013558538 21.07618407463631
    vertex 89.71832570352521 235.29122837600983 19.511786368491688
  endloop
endfacet
facet normal 4.3697221849248524e-32 0.9987763627722254 -0.049454799236114476
  outer loop
    vertex 89.71832570352521 235.36869013558538 21.07618407463631
    vertex 87.16625078020255 235.2897256159324 19.511991386365292
    vertex 87.16625078020255 235.367187375508 21.07638909250991
  endloop
endfacet
facet normal -1.0164154111321904e-05 3.094781640026251e-08 0.9999999999483447
  outer loop
    vertex 111.15107251837946 270.5698505331259 44.40010156446284
    vertex 101.16629651889606 273.06984651164794 44.400000000232446
    vertex 101.16629651889606 270.56984651164794 44.40000000023244
  endloop
endfacet
facet normal -1.0164154111321904e-05 3.094781640026251e-08 0.9999999999483447
  outer loop
    vertex 101.16629651889606 273.06984651164794 44.400000000232446
    vertex 111.15107251837946 270.5698505331259 44.40010156446284
    vertex 111.16629651837948 273.0698505331259 44.40010156446282
  endloop
endfacet
facet normal 3.05653384736106e-05 -0.9999999994870856 9.570213613820946e-06
  outer loop
    vertex 107.15250431636687 270.56951658415807 21.707591421003563
    vertex 101.1701197831324 270.56901866302536 7.403303315238762
    vertex 107.15436280492644 270.56944914026985 7.401507217760154
  endloop
endfacet
facet normal 3.05653384736106e-05 -0.9999999994870856 9.570213613820946e-06
  outer loop
    vertex 111.15107251837946 270.5698505331259 44.40010156446284
    vertex 107.15250431636687 270.56951658415807 21.707591421003563
    vertex 111.1525043853606 270.5696244089036 21.706390871491063
  endloop
endfacet
facet normal 3.05653384736106e-05 -0.9999999994870856 9.570213613820946e-06
  outer loop
    vertex 107.15250431636687 270.56951658415807 21.707591421003563
    vertex 111.15107251837946 270.5698505331259 44.40010156446284
    vertex 101.16629651889606 270.56984651164794 44.40000000023244
  endloop
endfacet
facet normal 3.05653384736106e-05 -0.9999999994870856 9.570213613820946e-06
  outer loop
    vertex 101.1701197831324 270.56901866302536 7.403303315238762
    vertex 89.71188404654335 270.57036976139216 4.40574646207276
    vertex 101.16924627269469 270.5689139412138 4.403303444236632
  endloop
endfacet
facet normal 3.05653384736106e-05 -0.9999999994870856 9.570213613820946e-06
  outer loop
    vertex 89.71188404654335 270.57036976139216 4.40574646207276
    vertex 101.1701197831324 270.56901866302536 7.403303315238762
    vertex 89.71671148771159 270.570133444624 51.897124918933514
  endloop
endfacet
facet normal 3.05653384736106e-05 -0.9999999994870856 9.570213613820946e-06
  outer loop
    vertex 89.71671148771159 270.570133444624 51.897124918933514
    vertex 101.1701197831324 270.56901866302536 7.403303315238762
    vertex 107.15250431636687 270.56951658415807 21.707591421003563
  endloop
endfacet
facet normal 3.05653384736106e-05 -0.9999999994870856 9.570213613820946e-06
  outer loop
    vertex 89.71671148771159 270.570133444624 51.897124918933514
    vertex 107.15250431636687 270.56951658415807 21.707591421003563
    vertex 101.16629651889606 270.56984651164794 44.40000000023244
  endloop
endfacet
facet normal 3.05653384736106e-05 -0.9999999994870856 9.570213613820946e-06
  outer loop
    vertex 89.71671148771159 270.570133444624 51.897124918933514
    vertex 101.16629651889606 270.56984651164794 44.40000000023244
    vertex 101.16595494638008 270.5698466509131 51.899999985413686
  endloop
endfacet
facet normal 0.9999915323350543 -0.0041123390498357445 -0.00015467944045068034
  outer loop
    vertex 111.15784218258764 273.06961257990224 21.70639023037356
    vertex 111.15107251837946 270.5698505331259 44.40010156446284
    vertex 111.1525043853606 270.5696244089036 21.706390871491063
  endloop
endfacet
facet normal 0.9999915323350543 -0.0041123390498357445 -0.00015467944045068034
  outer loop
    vertex 111.15107251837946 270.5698505331259 44.40010156446284
    vertex 111.15784218258764 273.06961257990224 21.70639023037356
    vertex 111.16629651837948 273.0698505331259 44.40010156446282
  endloop
endfacet
facet normal 0.9999998613456106 9.243992486414276e-08 0.000526601131185863
  outer loop
    vertex 111.1631858169809 220.36995600244637 21.397310473914118
    vertex 111.15107254353114 217.7297057909864 44.40051938878668
    vertex 111.16318584255922 217.7277432380164 21.397722147524927
  endloop
endfacet
facet normal 0.9999998613456106 9.243992486414276e-08 0.000526601131185863
  outer loop
    vertex 111.15107254353114 217.7297057909864 44.40051938878668
    vertex 111.1631858169809 220.36995600244637 21.397310473914118
    vertex 111.15107251839427 220.36985080389186 44.40010009749855
  endloop
endfacet
facet normal -1.0519309910049948e-05 0.9999999998480575 -1.3900685634439385e-05
  outer loop
    vertex 101.17026139028847 273.069212447415 7.403126521442715
    vertex 107.1524369192548 273.0694862232281 21.707566546779848
    vertex 107.15429540781436 273.0694187793399 7.401482343536433
  endloop
endfacet
facet normal -1.0519309910049948e-05 0.9999999998480575 -1.3900685634439385e-05
  outer loop
    vertex 107.1524369192548 273.0694862232281 21.707566546779848
    vertex 101.17026139028847 273.069212447415 7.403126521442715
    vertex 101.16629651889606 273.06984651164794 44.400000000232446
  endloop
endfacet
facet normal -1.0519309910049948e-05 0.9999999998480575 -1.3900685634439385e-05
  outer loop
    vertex 107.1524369192548 273.0694862232281 21.707566546779848
    vertex 111.16629651837948 273.0698505331259 44.40010156446282
    vertex 111.15784218258764 273.06961257990224 21.70639023037356
  endloop
endfacet
facet normal -1.0519309910049948e-05 0.9999999998480575 -1.3900685634439385e-05
  outer loop
    vertex 111.16629651837948 273.0698505331259 44.40010156446282
    vertex 107.1524369192548 273.0694862232281 21.707566546779848
    vertex 101.16629651889606 273.06984651164794 44.400000000232446
  endloop
endfacet
facet normal -3.119807386513917e-05 7.918263234569003e-05 0.9999999963783957
  outer loop
    vertex 101.16629651891087 217.72223579980482 44.399998533268196
    vertex 111.15107251839427 220.36985080389186 44.40010009749855
    vertex 101.16629651891085 220.3698467824139 44.399998533268196
  endloop
endfacet
facet normal -3.119807386513917e-05 7.918263234569003e-05 0.9999999963783957
  outer loop
    vertex 111.15107251839427 220.36985080389186 44.40010009749855
    vertex 101.16629651891087 217.72223579980482 44.399998533268196
    vertex 111.15107254353114 217.7297057909864 44.40051938878668
  endloop
endfacet
facet normal -7.424169162574379e-31 0.5422172938636479 0.8402383032421116
  outer loop
    vertex 89.71832570352521 237.38783947481787 15.426136645996694
    vertex 87.16625078020255 238.70241399009603 14.577058959183688
    vertex 87.16625078020255 237.38633671474045 15.426341663870296
  endloop
endfacet
facet normal -7.424169162574379e-31 0.5422172938636479 0.8402383032421116
  outer loop
    vertex 87.16625078020255 238.70241399009603 14.577058959183688
    vertex 89.71832570352521 237.38783947481787 15.426136645996694
    vertex 89.71832570352521 238.70391675017345 14.576853941310086
  endloop
endfacet
facet normal -0.00029291519817163566 5.508166754627129e-05 -0.9999999555833474
  outer loop
    vertex 101.16725307786876 220.36960051487256 7.400283995176273
    vertex 107.164088167758 217.72219132157096 7.398381603612748
    vertex 101.1671029721604 217.7220746758496 7.3999998746417095
  endloop
endfacet
facet normal -0.00029291519817163566 5.508166754627129e-05 -0.9999999555833474
  outer loop
    vertex 107.164088167758 217.72219132157096 7.398381603612748
    vertex 101.16725307786876 220.36960051487256 7.400283995176273
    vertex 107.16403810817398 220.3697676275819 7.3983891194792015
  endloop
endfacet
facet normal 8.411177585974286e-31 -0.3062720122997943 -0.9519440395747193
  outer loop
    vertex 89.71832570352521 243.83878207180754 25.42273602294272
    vertex 87.16625078020255 242.34623574342297 25.902659275405096
    vertex 87.16625078020255 243.83727931173013 25.42294104081632
  endloop
endfacet
facet normal 8.411177585974286e-31 -0.3062720122997943 -0.9519440395747193
  outer loop
    vertex 87.16625078020255 242.34623574342297 25.902659275405096
    vertex 89.71832570352521 243.83878207180754 25.42273602294272
    vertex 89.71832570352521 242.34773850350038 25.9024542575315
  endloop
endfacet
facet normal 6.549187917537029e-31 0.6712717151029923 -0.7412113629071584
  outer loop
    vertex 89.71832570352521 237.85866103682687 24.934727409308003
    vertex 87.16625078020255 236.6961883147834 23.883509936172608
    vertex 87.16625078020255 237.85715827674946 24.934932427181607
  endloop
endfacet
facet normal 6.549187917537029e-31 0.6712717151029923 -0.7412113629071584
  outer loop
    vertex 87.16625078020255 236.6961883147834 23.883509936172608
    vertex 89.71832570352521 237.85866103682687 24.934727409308003
    vertex 89.71832570352521 236.6976910748608 23.883304918299007
  endloop
endfacet
facet normal -4.3697221849248524e-32 -0.9987763627722254 0.049454799236114476
  outer loop
    vertex 89.71832570352521 247.25147044597117 20.48780359576111
    vertex 87.16625078020255 247.1725059263182 18.923610907490094
    vertex 89.71832570352521 247.17400868639558 18.92340588961649
  endloop
endfacet
facet normal -4.3697221849248524e-32 -0.9987763627722254 0.049454799236114476
  outer loop
    vertex 87.16625078020255 247.1725059263182 18.923610907490094
    vertex 89.71832570352521 247.25147044597117 20.48780359576111
    vertex 87.16625078020255 247.24996768589375 20.48800861363471
  endloop
endfacet
facet normal -7.861141381066938e-31 -0.45655906890856335 0.8896931024782343
  outer loop
    vertex 89.71832570352521 243.29049875022298 14.349747553486788
    vertex 87.16625078020255 244.6825350250767 15.0650675728184
    vertex 87.16625078020255 243.28899599014557 14.349952571360388
  endloop
endfacet
facet normal -7.861141381066938e-31 -0.45655906890856335 0.8896931024782343
  outer loop
    vertex 87.16625078020255 244.6825350250767 15.0650675728184
    vertex 89.71832570352521 243.29049875022298 14.349747553486788
    vertex 89.71832570352521 244.68403778515412 15.064862554944797
  endloop
endfacet
facet normal 1.8619896684370225e-31 -0.9775437274027883 -0.2107326766675342
  outer loop
    vertex 89.71832570352521 246.92139683963012 22.018944321358884
    vertex 87.16625078020255 247.24996768589375 20.48800861363471
    vertex 89.71832570352521 247.25147044597117 20.48780359576111
  endloop
endfacet
facet normal 1.8619896684370225e-31 -0.9775437274027883 -0.2107326766675342
  outer loop
    vertex 87.16625078020255 247.24996768589375 20.48800861363471
    vertex 89.71832570352521 246.92139683963012 22.018944321358884
    vertex 87.16625078020255 246.9198940795527 22.019149339232488
  endloop
endfacet
facet normal -8.411177585974286e-31 0.3062720122997943 0.9519440395747193
  outer loop
    vertex 89.71832570352521 238.70391675017345 14.576853941310086
    vertex 87.16625078020255 240.1934575584032 14.09734072459491
    vertex 87.16625078020255 238.70241399009603 14.577058959183688
  endloop
endfacet
facet normal -8.411177585974286e-31 0.3062720122997943 0.9519440395747193
  outer loop
    vertex 87.16625078020255 240.1934575584032 14.09734072459491
    vertex 89.71832570352521 238.70391675017345 14.576853941310086
    vertex 89.71832570352521 240.1949603184806 14.097135706721307
  endloop
endfacet
facet normal -5.9312158797645034e-31 0.7412113629071653 0.6712717151029848
  outer loop
    vertex 87.16625078020255 237.38633671474045 15.426341663870296
    vertex 89.71832570352521 236.33641698380887 16.587106607962774
    vertex 89.71832570352521 237.38783947481787 15.426136645996694
  endloop
endfacet
facet normal -5.9312158797645034e-31 0.7412113629071653 0.6712717151029848
  outer loop
    vertex 89.71832570352521 236.33641698380887 16.587106607962774
    vertex 87.16625078020255 237.38633671474045 15.426341663870296
    vertex 87.16625078020255 236.33491422373146 16.587311625836378
  endloop
endfacet
facet normal 8.637371050627458e-31 0.21073267666756199 -0.9775437274027823
  outer loop
    vertex 89.71832570352521 240.78334079735578 25.979916017107087
    vertex 87.16625078020255 239.2506973116806 25.650047428639617
    vertex 87.16625078020255 240.78183803727836 25.980121034980684
  endloop
endfacet
facet normal 8.637371050627458e-31 0.21073267666756199 -0.9775437274027823
  outer loop
    vertex 87.16625078020255 239.2506973116806 25.650047428639617
    vertex 89.71832570352521 240.78334079735578 25.979916017107087
    vertex 89.71832570352521 239.252200071758 25.649842410766016
  endloop
endfacet
facet normal -8.637371050627458e-31 -0.21073267666756199 0.9775437274027823
  outer loop
    vertex 89.71832570352521 241.75935802462521 14.01967394714572
    vertex 87.16625078020255 243.28899599014557 14.349952571360388
    vertex 87.16625078020255 241.7578552645478 14.019878965019322
  endloop
endfacet
facet normal -8.637371050627458e-31 -0.21073267666756199 0.9775437274027823
  outer loop
    vertex 87.16625078020255 243.28899599014557 14.349952571360388
    vertex 89.71832570352521 241.75935802462521 14.01967394714572
    vertex 89.71832570352521 243.29049875022298 14.349747553486788
  endloop
endfacet
endsolid Project-17 Iambic Keyer V2
