solid Project-17 Iambic Keyer V2
facet normal -0.0 -0.0 1.0
  outer loop
    vertex -107.51170663892076 -67.35272709460747 1.5
    vertex -105.01170663892071 -62.8527270946075 1.5
    vertex -107.51170663892069 -26.15272633166805 1.5
  endloop
endfacet
facet normal -0.0 -0.0 1.0
  outer loop
    vertex -105.01170663892071 -62.8527270946075 1.5
    vertex -107.51170663892076 -67.35272709460747 1.5
    vertex -72.11170582829756 -67.35272709460747 1.5
  endloop
endfacet
facet normal -0.0 -0.0 1.0
  outer loop
    vertex -105.01170663892071 -62.8527270946075 1.5
    vertex -72.11170582829756 -67.35272709460747 1.5
    vertex -80.81170587598122 -62.85272709460743 1.5
  endloop
endfacet
facet normal -0.0 -0.0 1.0
  outer loop
    vertex -80.81170587598122 -62.85272709460743 1.5
    vertex -72.11170582829756 -67.35272709460747 1.5
    vertex -80.81170587598119 -30.65272633166811 1.5
  endloop
endfacet
facet normal -0.0 -0.0 1.0
  outer loop
    vertex -107.51170663892069 -26.15272633166805 1.5
    vertex -105.01170663892063 -30.65272633166811 1.5
    vertex -72.11170582829752 -26.152726331668074 1.5
  endloop
endfacet
facet normal -0.0 -0.0 1.0
  outer loop
    vertex -105.01170663892063 -30.65272633166811 1.5
    vertex -107.51170663892069 -26.15272633166805 1.5
    vertex -105.01170663892071 -62.8527270946075 1.5
  endloop
endfacet
facet normal -0.0 -0.0 1.0
  outer loop
    vertex -72.11170582829752 -26.152726331668074 1.5
    vertex -105.01170663892063 -30.65272633166811 1.5
    vertex -80.81170587598119 -30.65272633166811 1.5
  endloop
endfacet
facet normal -0.0 -0.0 1.0
  outer loop
    vertex -72.11170582829752 -26.152726331668074 1.5
    vertex -80.81170587598119 -30.65272633166811 1.5
    vertex -72.11170582829756 -67.35272709460747 1.5
  endloop
endfacet
facet normal -1.0 0.0 0.0
  outer loop
    vertex -108.19200731760453 -70.25272710056808 9.99999999999999
    vertex -108.19200731760453 -71.35272709460753 5.0
    vertex -108.19200731760453 -71.35272709460753 9.999999999999998
  endloop
endfacet
facet normal -1.0 0.0 0.0
  outer loop
    vertex -108.19200731760453 -71.35272709460753 5.0
    vertex -108.19200731760453 -70.25272710056808 9.99999999999999
    vertex -108.19200731760453 -70.25272710056808 4.999999999999991
  endloop
endfacet
facet normal -1.0 0.0 0.0
  outer loop
    vertex -107.08772090397608 -22.152726331668116 9.999999999999998
    vertex -107.08772090397608 -23.252728620486426 4.999999999999998
    vertex -107.08772090397608 -23.252728620486426 9.999999999999996
  endloop
endfacet
facet normal -1.0 0.0 0.0
  outer loop
    vertex -107.08772090397608 -23.252728620486426 4.999999999999998
    vertex -107.08772090397608 -22.152726331668116 9.999999999999998
    vertex -107.08772090397608 -22.152726331668116 4.999999999999999
  endloop
endfacet
facet normal -1.0 0.0 0.0
  outer loop
    vertex -117.84768443777786 -20.79354259456938 5.000000000000133
    vertex -117.84768443777786 -73.01314259456942 2.5000000000001186
    vertex -117.84768443777786 -73.01314259456942 5.000000000000119
  endloop
endfacet
facet normal -1.0 0.0 0.0
  outer loop
    vertex -117.84768443777786 -73.01314259456942 2.5000000000001186
    vertex -117.84768443777786 -20.79354259456938 5.000000000000133
    vertex -117.84768443777786 -20.79354259456938 2.500000000000135
  endloop
endfacet
facet normal 1.8178050391189418e-16 -4.105407261274063e-16 1.0
  outer loop
    vertex -66.81170587598122 -71.35272709460756 5.0
    vertex -66.81170587598125 -22.15272633166808 4.999999999999999
    vertex -66.81170587598125 -23.65272633166808 5.0
  endloop
endfacet
facet normal 1.8178050391189418e-16 -4.105407261274063e-16 1.0
  outer loop
    vertex -59.04825069692787 -74.5131425945694 5.000000000000091
    vertex -134.7452544377779 -73.01314259456942 5.000000000000119
    vertex -134.7452544377779 -74.51314259456942 5.000000000000119
  endloop
endfacet
facet normal 1.8178050391189418e-16 -4.105407261274063e-16 1.0
  outer loop
    vertex -134.7452544377779 -73.01314259456942 5.000000000000119
    vertex -59.04825069692787 -74.5131425945694 5.000000000000091
    vertex -117.84768443777786 -73.01314259456942 5.000000000000119
  endloop
endfacet
facet normal 1.8178050391189418e-16 -4.105407261274063e-16 1.0
  outer loop
    vertex -117.84768443777786 -73.01314259456942 5.000000000000119
    vertex -59.04825069692787 -74.5131425945694 5.000000000000091
    vertex -108.19200731760453 -71.35272709460753 5.0
  endloop
endfacet
facet normal 1.8178050391189418e-16 -4.105407261274063e-16 1.0
  outer loop
    vertex -117.84768443777786 -73.01314259456942 5.000000000000119
    vertex -108.19200731760453 -71.35272709460753 5.0
    vertex -111.91170435010228 -70.25272710056808 4.999999999999991
  endloop
endfacet
facet normal 1.8178050391189418e-16 -4.105407261274063e-16 1.0
  outer loop
    vertex -117.84768443777786 -73.01314259456942 5.000000000000119
    vertex -111.91170435010228 -70.25272710056808 4.999999999999991
    vertex -117.84768443777786 -20.79354259456938 5.000000000000133
  endloop
endfacet
facet normal 1.8178050391189418e-16 -4.105407261274063e-16 1.0
  outer loop
    vertex -108.19200731760453 -71.35272709460753 5.0
    vertex -59.04825069692787 -74.5131425945694 5.000000000000091
    vertex -66.81170587598122 -71.35272709460756 5.0
  endloop
endfacet
facet normal 1.8178050391189418e-16 -4.105407261274063e-16 1.0
  outer loop
    vertex -117.84768443777786 -20.79354259456938 5.000000000000133
    vertex -134.7452544377779 -19.29354259456938 5.000000000000133
    vertex -134.7452544377779 -20.79354259456938 5.000000000000133
  endloop
endfacet
facet normal 1.8178050391189418e-16 -4.105407261274063e-16 1.0
  outer loop
    vertex -134.7452544377779 -19.29354259456938 5.000000000000133
    vertex -117.84768443777786 -20.79354259456938 5.000000000000133
    vertex -59.04825069692787 -19.293542594569374 5.000000000000135
  endloop
endfacet
facet normal 1.8178050391189418e-16 -4.105407261274063e-16 1.0
  outer loop
    vertex -59.04825069692787 -19.293542594569374 5.000000000000135
    vertex -117.84768443777786 -20.79354259456938 5.000000000000133
    vertex -107.08772090397608 -22.152726331668116 4.999999999999999
  endloop
endfacet
facet normal 1.8178050391189418e-16 -4.105407261274063e-16 1.0
  outer loop
    vertex -107.08772090397608 -22.152726331668116 4.999999999999999
    vertex -117.84768443777786 -20.79354259456938 5.000000000000133
    vertex -111.91170435010226 -23.252728620486426 4.999999999999998
  endloop
endfacet
facet normal 1.8178050391189418e-16 -4.105407261274063e-16 1.0
  outer loop
    vertex -111.91170435010226 -23.252728620486426 4.999999999999998
    vertex -117.84768443777786 -20.79354259456938 5.000000000000133
    vertex -111.91170435010228 -70.25272710056808 4.999999999999991
  endloop
endfacet
facet normal 1.8178050391189418e-16 -4.105407261274063e-16 1.0
  outer loop
    vertex -107.08772090397608 -22.152726331668116 4.999999999999999
    vertex -111.91170435010226 -23.252728620486426 4.999999999999998
    vertex -107.08772090397608 -23.252728620486426 4.999999999999998
  endloop
endfacet
facet normal 1.8178050391189418e-16 -4.105407261274063e-16 1.0
  outer loop
    vertex -59.04825069692787 -19.293542594569374 5.000000000000135
    vertex -107.08772090397608 -22.152726331668116 4.999999999999999
    vertex -66.81170587598125 -22.15272633166808 4.999999999999999
  endloop
endfacet
facet normal 1.8178050391189418e-16 -4.105407261274063e-16 1.0
  outer loop
    vertex -59.04825069692787 -19.293542594569374 5.000000000000135
    vertex -66.81170587598125 -22.15272633166808 4.999999999999999
    vertex -66.81170587598122 -71.35272709460756 5.0
  endloop
endfacet
facet normal 1.8178050391189418e-16 -4.105407261274063e-16 1.0
  outer loop
    vertex -59.04825069692787 -19.293542594569374 5.000000000000135
    vertex -66.81170587598122 -71.35272709460756 5.0
    vertex -59.04825069692787 -74.5131425945694 5.000000000000091
  endloop
endfacet
facet normal 1.8178050391189418e-16 -4.105407261274063e-16 1.0
  outer loop
    vertex -108.19200731760453 -70.25272710056808 4.999999999999991
    vertex -111.91170435010228 -70.25272710056808 4.999999999999991
    vertex -108.19200731760453 -71.35272709460753 5.0
  endloop
endfacet
facet normal -0.0 1.0 -0.0
  outer loop
    vertex -134.7452544377779 -73.01314259456942 5.000000000000119
    vertex -117.84768443777786 -73.01314259456942 2.5000000000001186
    vertex -134.7452544377779 -73.01314259456942 2.5000000000001186
  endloop
endfacet
facet normal -0.0 1.0 -0.0
  outer loop
    vertex -117.84768443777786 -73.01314259456942 2.5000000000001186
    vertex -134.7452544377779 -73.01314259456942 5.000000000000119
    vertex -117.84768443777786 -73.01314259456942 5.000000000000119
  endloop
endfacet
facet normal 0.0 -1.0 0.0
  outer loop
    vertex -117.84768443777786 -20.79354259456938 5.000000000000133
    vertex -134.7452544377779 -20.79354259456938 2.500000000000135
    vertex -117.84768443777786 -20.79354259456938 2.500000000000135
  endloop
endfacet
facet normal 0.0 -1.0 0.0
  outer loop
    vertex -134.7452544377779 -20.79354259456938 2.500000000000135
    vertex -117.84768443777786 -20.79354259456938 5.000000000000133
    vertex -134.7452544377779 -20.79354259456938 5.000000000000133
  endloop
endfacet
facet normal -1.4246470132804025e-16 1.0 7.519910620127734e-16
  outer loop
    vertex -134.7452544377779 -19.29354259456938 5.000000000000133
    vertex -59.04825069692787 -19.29354259456937 2.5000000000001354
    vertex -134.7452544377779 -19.29354259456938 2.5000000000001354
  endloop
endfacet
facet normal -1.4246470132804025e-16 1.0 7.519910620127734e-16
  outer loop
    vertex -59.04825069692787 -19.29354259456937 2.5000000000001354
    vertex -134.7452544377779 -19.29354259456938 5.000000000000133
    vertex -59.04825069692787 -19.293542594569374 5.000000000000135
  endloop
endfacet
facet normal -0.0 -3.1051190117600287e-16 1.0
  outer loop
    vertex -117.84768443777786 -73.01314259456942 2.5000000000001186
    vertex -134.7452544377779 -20.79354259456938 2.500000000000135
    vertex -134.7452544377779 -73.01314259456942 2.5000000000001186
  endloop
endfacet
facet normal -0.0 -3.1051190117600287e-16 1.0
  outer loop
    vertex -134.7452544377779 -20.79354259456938 2.500000000000135
    vertex -117.84768443777786 -73.01314259456942 2.5000000000001186
    vertex -117.84768443777786 -20.79354259456938 2.500000000000135
  endloop
endfacet
facet normal 1.0 1.482792402789684e-31 -1.8147202252184602e-16
  outer loop
    vertex -59.04825069692787 -19.29354259456937 2.5000000000001354
    vertex -59.04825069692787 -74.5131425945694 5.000000000000091
    vertex -59.04825069692787 -74.5131425945694 2.50000000000009
  endloop
endfacet
facet normal 1.0 1.482792402789684e-31 -1.8147202252184602e-16
  outer loop
    vertex -59.04825069692787 -74.5131425945694 5.000000000000091
    vertex -59.04825069692787 -19.29354259456937 2.5000000000001354
    vertex -59.04825069692787 -19.293542594569374 5.000000000000135
  endloop
endfacet
facet normal -9.452163399962845e-16 1.0 -2.819966482547899e-16
  outer loop
    vertex -107.08772090397608 -22.152726331668116 9.999999999999998
    vertex -66.81170587598125 -22.15272633166808 4.999999999999999
    vertex -107.08772090397608 -22.152726331668116 4.999999999999999
  endloop
endfacet
facet normal -9.452163399962845e-16 1.0 -2.819966482547899e-16
  outer loop
    vertex -66.81170587598125 -22.15272633166808 4.999999999999999
    vertex -107.08772090397608 -22.152726331668116 9.999999999999998
    vertex -66.81170587598125 -22.152726331668077 9.999999999999998
  endloop
endfacet
facet normal 1.0 -1.6426988914531505e-15 -0.0
  outer loop
    vertex -107.51170663892069 -26.15272633166805 1.5
    vertex -107.51170663892076 -67.35272709460747 4.0
    vertex -107.51170663892076 -67.35272709460747 1.5
  endloop
endfacet
facet normal 1.0 -1.6426988914531505e-15 -0.0
  outer loop
    vertex -107.51170663892076 -67.35272709460747 4.0
    vertex -107.51170663892069 -26.15272633166805 1.5
    vertex -107.51170663892069 -26.15272633166805 4.0
  endloop
endfacet
facet normal -1.701062233539512e-15 1.0 5.600134080584649e-15
  outer loop
    vertex -111.91170435010228 -70.25272710056808 4.999999999999991
    vertex -108.51170663892064 -70.25272710056797 1.4999999999999916
    vertex -111.91170435010228 -70.25272710056808 1.4999999999999916
  endloop
endfacet
facet normal -1.701062233539512e-15 1.0 5.600134080584649e-15
  outer loop
    vertex -108.51170663892064 -70.25272710056797 1.4999999999999916
    vertex -111.91170435010228 -70.25272710056808 4.999999999999991
    vertex -108.51170663892064 -70.25272710056797 3.999999999999992
  endloop
endfacet
facet normal -1.701062233539512e-15 1.0 5.600134080584649e-15
  outer loop
    vertex -108.51170663892064 -70.25272710056797 3.999999999999992
    vertex -111.91170435010228 -70.25272710056808 4.999999999999991
    vertex -71.11170582829752 -70.25272710056792 3.999999999999992
  endloop
endfacet
facet normal -1.701062233539512e-15 1.0 5.600134080584649e-15
  outer loop
    vertex -71.11170582829752 -70.25272710056792 3.999999999999992
    vertex -67.91170587002077 -70.252727100568 1.4999999999999916
    vertex -71.11170582829752 -70.25272710056792 1.4999999999999916
  endloop
endfacet
facet normal -1.701062233539512e-15 1.0 5.600134080584649e-15
  outer loop
    vertex -67.91170587002077 -70.252727100568 1.4999999999999916
    vertex -71.11170582829752 -70.25272710056792 3.999999999999992
    vertex -67.91170587002077 -70.252727100568 9.99999999999999
  endloop
endfacet
facet normal -1.701062233539512e-15 1.0 5.600134080584649e-15
  outer loop
    vertex -67.91170587002077 -70.252727100568 9.99999999999999
    vertex -71.11170582829752 -70.25272710056792 3.999999999999992
    vertex -108.19200731760453 -70.25272710056808 4.999999999999991
  endloop
endfacet
facet normal -1.701062233539512e-15 1.0 5.600134080584649e-15
  outer loop
    vertex -108.19200731760453 -70.25272710056808 4.999999999999991
    vertex -71.11170582829752 -70.25272710056792 3.999999999999992
    vertex -111.91170435010228 -70.25272710056808 4.999999999999991
  endloop
endfacet
facet normal -1.701062233539512e-15 1.0 5.600134080584649e-15
  outer loop
    vertex -67.91170587002077 -70.252727100568 9.99999999999999
    vertex -108.19200731760453 -70.25272710056808 4.999999999999991
    vertex -108.19200731760453 -70.25272710056808 9.99999999999999
  endloop
endfacet
facet normal -2.0558214038582567e-16 -1.0 8.699086088559248e-16
  outer loop
    vertex -67.9117058700208 -23.252728620486426 9.999999999999996
    vertex -71.11170582829752 -23.252728620486447 1.499999999999999
    vertex -67.9117058700208 -23.252728620486426 1.499999999999999
  endloop
endfacet
facet normal -2.0558214038582567e-16 -1.0 8.699086088559248e-16
  outer loop
    vertex -71.11170582829752 -23.252728620486447 1.499999999999999
    vertex -67.9117058700208 -23.252728620486426 9.999999999999996
    vertex -71.11170582829752 -23.252728620486447 3.999999999999999
  endloop
endfacet
facet normal -2.0558214038582567e-16 -1.0 8.699086088559248e-16
  outer loop
    vertex -71.11170582829752 -23.252728620486447 3.999999999999999
    vertex -67.9117058700208 -23.252728620486426 9.999999999999996
    vertex -108.51170663892054 -23.252728620486426 3.999999999999999
  endloop
endfacet
facet normal -2.0558214038582567e-16 -1.0 8.699086088559248e-16
  outer loop
    vertex -108.51170663892054 -23.252728620486426 3.999999999999999
    vertex -67.9117058700208 -23.252728620486426 9.999999999999996
    vertex -107.08772090397608 -23.252728620486426 4.999999999999998
  endloop
endfacet
facet normal -2.0558214038582567e-16 -1.0 8.699086088559248e-16
  outer loop
    vertex -107.08772090397608 -23.252728620486426 4.999999999999998
    vertex -67.9117058700208 -23.252728620486426 9.999999999999996
    vertex -107.08772090397608 -23.252728620486426 9.999999999999996
  endloop
endfacet
facet normal -2.0558214038582567e-16 -1.0 8.699086088559248e-16
  outer loop
    vertex -108.51170663892054 -23.252728620486426 3.999999999999999
    vertex -111.91170435010226 -23.252728620486426 1.499999999999999
    vertex -108.51170663892054 -23.252728620486426 1.499999999999999
  endloop
endfacet
facet normal -2.0558214038582567e-16 -1.0 8.699086088559248e-16
  outer loop
    vertex -111.91170435010226 -23.252728620486426 1.499999999999999
    vertex -108.51170663892054 -23.252728620486426 3.999999999999999
    vertex -111.91170435010226 -23.252728620486426 4.999999999999998
  endloop
endfacet
facet normal -2.0558214038582567e-16 -1.0 8.699086088559248e-16
  outer loop
    vertex -111.91170435010226 -23.252728620486426 4.999999999999998
    vertex -108.51170663892054 -23.252728620486426 3.999999999999999
    vertex -107.08772090397608 -23.252728620486426 4.999999999999998
  endloop
endfacet
facet normal -1.0 -6.749615367762475e-16 -1.3366709586979444e-15
  outer loop
    vertex -67.91170587002077 -70.252727100568 9.99999999999999
    vertex -67.91170587002071 -49.752726713137825 6.499999999999999
    vertex -67.91170587002077 -70.252727100568 1.4999999999999916
  endloop
endfacet
facet normal -1.0 -6.749615367762475e-16 -1.3366709586979444e-15
  outer loop
    vertex -67.91170587002071 -49.752726713137825 6.499999999999999
    vertex -67.91170587002077 -70.252727100568 9.99999999999999
    vertex -67.9117058700208 -23.252728620486426 9.999999999999996
  endloop
endfacet
facet normal -1.0 -6.749615367762475e-16 -1.3366709586979444e-15
  outer loop
    vertex -67.91170587002071 -49.752726713137825 6.499999999999999
    vertex -67.9117058700208 -23.252728620486426 9.999999999999996
    vertex -67.91170587002077 -43.75272671313779 6.499999999999999
  endloop
endfacet
facet normal -1.0 -6.749615367762475e-16 -1.3366709586979444e-15
  outer loop
    vertex -67.91170587002077 -43.75272671313779 6.499999999999999
    vertex -67.9117058700208 -23.252728620486426 9.999999999999996
    vertex -67.91170587002077 -43.75272671313779 1.5
  endloop
endfacet
facet normal -1.0 -6.749615367762475e-16 -1.3366709586979444e-15
  outer loop
    vertex -67.91170587002077 -43.75272671313779 1.5
    vertex -67.9117058700208 -23.252728620486426 9.999999999999996
    vertex -67.9117058700208 -23.252728620486426 1.499999999999999
  endloop
endfacet
facet normal -1.0 -6.749615367762475e-16 -1.3366709586979444e-15
  outer loop
    vertex -67.91170587002071 -49.752726713137825 1.5
    vertex -67.91170587002077 -70.252727100568 1.4999999999999916
    vertex -67.91170587002071 -49.752726713137825 6.499999999999999
  endloop
endfacet
facet normal -0.0 1.0 -0.0
  outer loop
    vertex -107.51170663892076 -67.35272709460747 4.0
    vertex -72.11170582829756 -67.35272709460747 1.5
    vertex -107.51170663892076 -67.35272709460747 1.5
  endloop
endfacet
facet normal -0.0 1.0 -0.0
  outer loop
    vertex -72.11170582829756 -67.35272709460747 1.5
    vertex -107.51170663892076 -67.35272709460747 4.0
    vertex -72.11170582829756 -67.35272709460747 4.0
  endloop
endfacet
facet normal -1.0 1.0951325943021011e-15 0.0
  outer loop
    vertex -72.11170582829752 -26.152726331668074 4.0
    vertex -72.11170582829756 -67.35272709460747 1.5
    vertex -72.11170582829756 -67.35272709460747 4.0
  endloop
endfacet
facet normal -1.0 1.0951325943021011e-15 0.0
  outer loop
    vertex -72.11170582829756 -67.35272709460747 1.5
    vertex -72.11170582829752 -26.152726331668074 4.0
    vertex -72.11170582829752 -26.152726331668074 1.5
  endloop
endfacet
facet normal -6.37280546434712e-16 -1.0 0.0
  outer loop
    vertex -72.11170582829752 -26.152726331668074 4.0
    vertex -107.51170663892069 -26.15272633166805 1.5
    vertex -72.11170582829752 -26.152726331668074 1.5
  endloop
endfacet
facet normal -6.37280546434712e-16 -1.0 0.0
  outer loop
    vertex -107.51170663892069 -26.15272633166805 1.5
    vertex -72.11170582829752 -26.152726331668074 4.0
    vertex -107.51170663892069 -26.15272633166805 4.0
  endloop
endfacet
facet normal 1.0 -6.465430669657336e-16 5.9716936841110405e-15
  outer loop
    vertex -111.91170435010226 -23.252728620486426 1.499999999999999
    vertex -111.91170435010228 -70.25272710056808 4.999999999999991
    vertex -111.91170435010228 -70.25272710056808 1.4999999999999916
  endloop
endfacet
facet normal 1.0 -6.465430669657336e-16 5.9716936841110405e-15
  outer loop
    vertex -111.91170435010228 -70.25272710056808 4.999999999999991
    vertex -111.91170435010226 -23.252728620486426 1.499999999999999
    vertex -111.91170435010226 -23.252728620486426 4.999999999999998
  endloop
endfacet
facet normal -1.0367530848657314e-16 -2.164764178334148e-18 1.0
  outer loop
    vertex -108.51170663892064 -70.25272710056797 1.4999999999999916
    vertex -111.91170435010226 -23.252728620486426 1.499999999999999
    vertex -111.91170435010228 -70.25272710056808 1.4999999999999916
  endloop
endfacet
facet normal -1.0367530848657314e-16 -2.164764178334148e-18 1.0
  outer loop
    vertex -111.91170435010226 -23.252728620486426 1.499999999999999
    vertex -108.51170663892064 -70.25272710056797 1.4999999999999916
    vertex -108.51170663892054 -23.252728620486426 1.499999999999999
  endloop
endfacet
facet normal -0.0 -0.0 1.0
  outer loop
    vertex -67.91170587002077 -70.252727100568 1.4999999999999916
    vertex -71.11170582829752 -23.252728620486447 1.499999999999999
    vertex -71.11170582829752 -70.25272710056792 1.4999999999999916
  endloop
endfacet
facet normal -0.0 -0.0 1.0
  outer loop
    vertex -71.11170582829752 -23.252728620486447 1.499999999999999
    vertex -67.91170587002077 -70.252727100568 1.4999999999999916
    vertex -68.41170587747135 -49.752726713137776 1.5
  endloop
endfacet
facet normal -0.0 -0.0 1.0
  outer loop
    vertex -71.11170582829752 -23.252728620486447 1.499999999999999
    vertex -68.41170587747135 -49.752726713137776 1.5
    vertex -68.41170587747142 -43.7527267131377 1.5
  endloop
endfacet
facet normal -0.0 -0.0 1.0
  outer loop
    vertex -68.41170587747135 -49.752726713137776 1.5
    vertex -67.91170587002077 -70.252727100568 1.4999999999999916
    vertex -67.91170587002071 -49.752726713137825 1.5
  endloop
endfacet
facet normal -0.0 -0.0 1.0
  outer loop
    vertex -68.41170587747142 -43.7527267131377 1.5
    vertex -67.9117058700208 -23.252728620486426 1.499999999999999
    vertex -71.11170582829752 -23.252728620486447 1.499999999999999
  endloop
endfacet
facet normal -0.0 -0.0 1.0
  outer loop
    vertex -67.9117058700208 -23.252728620486426 1.499999999999999
    vertex -68.41170587747142 -43.7527267131377 1.5
    vertex -67.91170587002077 -43.75272671313779 1.5
  endloop
endfacet
facet normal -0.0 -0.0 1.0
  outer loop
    vertex -66.81170587598122 -71.35272709460756 9.999999999999998
    vertex -108.19200731760453 -70.25272710056808 9.99999999999999
    vertex -108.19200731760453 -71.35272709460753 9.999999999999998
  endloop
endfacet
facet normal -0.0 -0.0 1.0
  outer loop
    vertex -108.19200731760453 -70.25272710056808 9.99999999999999
    vertex -66.81170587598122 -71.35272709460756 9.999999999999998
    vertex -67.91170587002077 -70.252727100568 9.99999999999999
  endloop
endfacet
facet normal -0.0 -0.0 1.0
  outer loop
    vertex -67.91170587002077 -70.252727100568 9.99999999999999
    vertex -66.81170587598122 -71.35272709460756 9.999999999999998
    vertex -66.81170587598125 -22.152726331668077 9.999999999999998
  endloop
endfacet
facet normal -0.0 -0.0 1.0
  outer loop
    vertex -67.9117058700208 -23.252728620486426 9.999999999999996
    vertex -107.08772090397608 -22.152726331668116 9.999999999999998
    vertex -107.08772090397608 -23.252728620486426 9.999999999999996
  endloop
endfacet
facet normal -0.0 -0.0 1.0
  outer loop
    vertex -107.08772090397608 -22.152726331668116 9.999999999999998
    vertex -67.9117058700208 -23.252728620486426 9.999999999999996
    vertex -66.81170587598125 -22.152726331668077 9.999999999999998
  endloop
endfacet
facet normal -0.0 -0.0 1.0
  outer loop
    vertex -66.81170587598125 -22.152726331668077 9.999999999999998
    vertex -67.9117058700208 -23.252728620486426 9.999999999999996
    vertex -67.91170587002077 -70.252727100568 9.99999999999999
  endloop
endfacet
facet normal -2.7966608862589457e-15 1.0 -0.0
  outer loop
    vertex -105.01170663892071 -62.8527270946075 1.5
    vertex -80.81170587598122 -62.85272709460743 2.8199664401962502e-15
    vertex -105.01170663892071 -62.8527270946075 2.8199664401962502e-15
  endloop
endfacet
facet normal -2.7966608862589457e-15 1.0 -0.0
  outer loop
    vertex -80.81170587598122 -62.85272709460743 2.8199664401962502e-15
    vertex -105.01170663892071 -62.8527270946075 1.5
    vertex -80.81170587598122 -62.85272709460743 1.5
  endloop
endfacet
facet normal -1.0 7.006127740949734e-16 0.0
  outer loop
    vertex -80.81170587598119 -30.65272633166811 1.5
    vertex -80.81170587598122 -62.85272709460743 2.8199664401962502e-15
    vertex -80.81170587598122 -62.85272709460743 1.5
  endloop
endfacet
facet normal -1.0 7.006127740949734e-16 0.0
  outer loop
    vertex -80.81170587598122 -62.85272709460743 2.8199664401962502e-15
    vertex -80.81170587598119 -30.65272633166811 1.5
    vertex -80.81170587598119 -30.65272633166811 2.8199664401962502e-15
  endloop
endfacet
facet normal -1.0 2.050884785425235e-15 0.0
  outer loop
    vertex -108.51170663892054 -23.252728620486426 3.999999999999999
    vertex -108.51170663892064 -70.25272710056797 1.4999999999999916
    vertex -108.51170663892064 -70.25272710056797 3.999999999999992
  endloop
endfacet
facet normal -1.0 2.050884785425235e-15 0.0
  outer loop
    vertex -108.51170663892064 -70.25272710056797 1.4999999999999916
    vertex -108.51170663892054 -23.252728620486426 3.999999999999999
    vertex -108.51170663892054 -23.252728620486426 1.499999999999999
  endloop
endfacet
facet normal 1.0 -2.802451096379888e-15 -0.0
  outer loop
    vertex -105.01170663892063 -30.65272633166811 2.8199664401962502e-15
    vertex -105.01170663892071 -62.8527270946075 1.5
    vertex -105.01170663892071 -62.8527270946075 2.8199664401962502e-15
  endloop
endfacet
facet normal 1.0 -2.802451096379888e-15 -0.0
  outer loop
    vertex -105.01170663892071 -62.8527270946075 1.5
    vertex -105.01170663892063 -30.65272633166811 2.8199664401962502e-15
    vertex -105.01170663892063 -30.65272633166811 1.5
  endloop
endfacet
facet normal 1.0 -0.0 -0.0
  outer loop
    vertex -71.11170582829752 -23.252728620486447 1.499999999999999
    vertex -71.11170582829752 -70.25272710056792 3.999999999999992
    vertex -71.11170582829752 -70.25272710056792 1.4999999999999916
  endloop
endfacet
facet normal 1.0 -0.0 -0.0
  outer loop
    vertex -71.11170582829752 -70.25272710056792 3.999999999999992
    vertex -71.11170582829752 -23.252728620486447 1.499999999999999
    vertex -71.11170582829752 -23.252728620486447 3.999999999999999
  endloop
endfacet
facet normal -0.0 -0.0 1.0
  outer loop
    vertex -108.51170663892064 -70.25272710056797 3.999999999999992
    vertex -107.51170663892076 -67.35272709460747 4.0
    vertex -108.51170663892054 -23.252728620486426 3.999999999999999
  endloop
endfacet
facet normal -0.0 -0.0 1.0
  outer loop
    vertex -107.51170663892076 -67.35272709460747 4.0
    vertex -108.51170663892064 -70.25272710056797 3.999999999999992
    vertex -71.11170582829752 -70.25272710056792 3.999999999999992
  endloop
endfacet
facet normal -0.0 -0.0 1.0
  outer loop
    vertex -107.51170663892076 -67.35272709460747 4.0
    vertex -71.11170582829752 -70.25272710056792 3.999999999999992
    vertex -72.11170582829756 -67.35272709460747 4.0
  endloop
endfacet
facet normal -0.0 -0.0 1.0
  outer loop
    vertex -72.11170582829756 -67.35272709460747 4.0
    vertex -71.11170582829752 -70.25272710056792 3.999999999999992
    vertex -72.11170582829752 -26.152726331668074 4.0
  endloop
endfacet
facet normal -0.0 -0.0 1.0
  outer loop
    vertex -108.51170663892054 -23.252728620486426 3.999999999999999
    vertex -107.51170663892069 -26.15272633166805 4.0
    vertex -71.11170582829752 -23.252728620486447 3.999999999999999
  endloop
endfacet
facet normal -0.0 -0.0 1.0
  outer loop
    vertex -107.51170663892069 -26.15272633166805 4.0
    vertex -108.51170663892054 -23.252728620486426 3.999999999999999
    vertex -107.51170663892076 -67.35272709460747 4.0
  endloop
endfacet
facet normal -0.0 -0.0 1.0
  outer loop
    vertex -71.11170582829752 -23.252728620486447 3.999999999999999
    vertex -107.51170663892069 -26.15272633166805 4.0
    vertex -72.11170582829752 -26.152726331668074 4.0
  endloop
endfacet
facet normal -0.0 -0.0 1.0
  outer loop
    vertex -71.11170582829752 -23.252728620486447 3.999999999999999
    vertex -72.11170582829752 -26.152726331668074 4.0
    vertex -71.11170582829752 -70.25272710056792 3.999999999999992
  endloop
endfacet
facet normal 4.1649024893311195e-19 2.8925657305395954e-16 -1.0
  outer loop
    vertex -134.7452544377779 -17.13372090240085 1.3535839116229907e-13
    vertex -105.01170663892063 -30.65272633166811 2.8199664401962502e-15
    vertex -134.7452544377779 -77.13372090240085 1.184385922670117e-13
  endloop
endfacet
facet normal 4.1649024893311195e-19 2.8925657305395954e-16 -1.0
  outer loop
    vertex -105.01170663892063 -30.65272633166811 2.8199664401962502e-15
    vertex -134.7452544377779 -17.13372090240085 1.3535839116229907e-13
    vertex -54.745254437777895 -17.13372090240085 1.3520458953143229e-13
  endloop
endfacet
facet normal 4.1649024893311195e-19 2.8925657305395954e-16 -1.0
  outer loop
    vertex -134.7452544377779 -77.13372090240085 1.184385922670117e-13
    vertex -105.01170663892063 -30.65272633166811 2.8199664401962502e-15
    vertex -105.01170663892071 -62.8527270946075 2.8199664401962502e-15
  endloop
endfacet
facet normal 4.1649024893311195e-19 2.8925657305395954e-16 -1.0
  outer loop
    vertex -105.01170663892063 -30.65272633166811 2.8199664401962502e-15
    vertex -54.745254437777895 -17.13372090240085 1.3520458953143229e-13
    vertex -80.81170587598119 -30.65272633166811 2.8199664401962502e-15
  endloop
endfacet
facet normal 4.1649024893311195e-19 2.8925657305395954e-16 -1.0
  outer loop
    vertex -105.01170663892071 -62.8527270946075 2.8199664401962502e-15
    vertex -54.745254437777895 -77.13372090240085 1.1828479063614492e-13
    vertex -134.7452544377779 -77.13372090240085 1.184385922670117e-13
  endloop
endfacet
facet normal 4.1649024893311195e-19 2.8925657305395954e-16 -1.0
  outer loop
    vertex -54.745254437777895 -77.13372090240085 1.1828479063614492e-13
    vertex -105.01170663892071 -62.8527270946075 2.8199664401962502e-15
    vertex -80.81170587598122 -62.85272709460743 2.8199664401962502e-15
  endloop
endfacet
facet normal 4.1649024893311195e-19 2.8925657305395954e-16 -1.0
  outer loop
    vertex -54.745254437777895 -77.13372090240085 1.1828479063614492e-13
    vertex -80.81170587598122 -62.85272709460743 2.8199664401962502e-15
    vertex -80.81170587598119 -30.65272633166811 2.8199664401962502e-15
  endloop
endfacet
facet normal 4.1649024893311195e-19 2.8925657305395954e-16 -1.0
  outer loop
    vertex -54.745254437777895 -77.13372090240085 1.1828479063614492e-13
    vertex -80.81170587598119 -30.65272633166811 2.8199664401962502e-15
    vertex -54.745254437777895 -17.13372090240085 1.3520458953143229e-13
  endloop
endfacet
facet normal -1.0 0.0 0.0
  outer loop
    vertex -134.7452544377779 -73.01314259456942 5.000000000000119
    vertex -134.7452544377779 -74.51314259456942 2.5000000000001186
    vertex -134.7452544377779 -74.51314259456942 5.000000000000119
  endloop
endfacet
facet normal -1.0 0.0 0.0
  outer loop
    vertex -134.7452544377779 -19.29354259456938 5.000000000000133
    vertex -134.7452544377779 -20.79354259456938 2.500000000000135
    vertex -134.7452544377779 -20.79354259456938 5.000000000000133
  endloop
endfacet
facet normal -1.0 0.0 0.0
  outer loop
    vertex -134.7452544377779 -74.51314259456942 2.5000000000001186
    vertex -134.7452544377779 -77.13372090240085 1.184385922670117e-13
    vertex -134.7452544377779 -77.13372090240085 2.5000000000001186
  endloop
endfacet
facet normal -1.0 0.0 0.0
  outer loop
    vertex -134.7452544377779 -77.13372090240085 1.184385922670117e-13
    vertex -134.7452544377779 -74.51314259456942 2.5000000000001186
    vertex -134.7452544377779 -17.13372090240085 1.3535839116229907e-13
  endloop
endfacet
facet normal -1.0 0.0 0.0
  outer loop
    vertex -134.7452544377779 -17.13372090240085 1.3535839116229907e-13
    vertex -134.7452544377779 -74.51314259456942 2.5000000000001186
    vertex -134.7452544377779 -73.01314259456942 2.5000000000001186
  endloop
endfacet
facet normal -1.0 0.0 0.0
  outer loop
    vertex -134.7452544377779 -73.01314259456942 2.5000000000001186
    vertex -134.7452544377779 -74.51314259456942 2.5000000000001186
    vertex -134.7452544377779 -73.01314259456942 5.000000000000119
  endloop
endfacet
facet normal -1.0 0.0 0.0
  outer loop
    vertex -134.7452544377779 -17.13372090240085 1.3535839116229907e-13
    vertex -134.7452544377779 -73.01314259456942 2.5000000000001186
    vertex -134.7452544377779 -20.79354259456938 2.500000000000135
  endloop
endfacet
facet normal -1.0 0.0 0.0
  outer loop
    vertex -134.7452544377779 -17.13372090240085 1.3535839116229907e-13
    vertex -134.7452544377779 -20.79354259456938 2.500000000000135
    vertex -134.7452544377779 -19.29354259456938 2.5000000000001354
  endloop
endfacet
facet normal -1.0 0.0 0.0
  outer loop
    vertex -134.7452544377779 -19.29354259456938 2.5000000000001354
    vertex -134.7452544377779 -20.79354259456938 2.500000000000135
    vertex -134.7452544377779 -19.29354259456938 5.000000000000133
  endloop
endfacet
facet normal -1.0 0.0 0.0
  outer loop
    vertex -134.7452544377779 -17.13372090240085 1.3535839116229907e-13
    vertex -134.7452544377779 -19.29354259456938 2.5000000000001354
    vertex -134.7452544377779 -17.13372090240085 2.5000000000001354
  endloop
endfacet
facet normal 0.0 -1.0 0.0
  outer loop
    vertex -80.81170587598119 -30.65272633166811 1.5
    vertex -105.01170663892063 -30.65272633166811 2.8199664401962502e-15
    vertex -80.81170587598119 -30.65272633166811 2.8199664401962502e-15
  endloop
endfacet
facet normal 0.0 -1.0 0.0
  outer loop
    vertex -105.01170663892063 -30.65272633166811 2.8199664401962502e-15
    vertex -80.81170587598119 -30.65272633166811 1.5
    vertex -105.01170663892063 -30.65272633166811 1.5
  endloop
endfacet
facet normal -9.023892609685854e-14 -1.0 0.0
  outer loop
    vertex -67.91170587002071 -49.752726713137825 6.499999999999999
    vertex -68.41170587747135 -49.752726713137776 1.5
    vertex -67.91170587002071 -49.752726713137825 1.5
  endloop
endfacet
facet normal -9.023892609685854e-14 -1.0 0.0
  outer loop
    vertex -68.41170587747135 -49.752726713137776 1.5
    vertex -67.91170587002071 -49.752726713137825 6.499999999999999
    vertex -68.41170587747135 -49.752726713137776 6.499999999999999
  endloop
endfacet
facet normal -0.0 -0.0 1.0
  outer loop
    vertex -68.41170587747135 -49.752726713137776 6.499999999999999
    vertex -67.91170587002077 -43.75272671313779 6.499999999999999
    vertex -68.41170587747142 -43.7527267131377 6.499999999999999
  endloop
endfacet
facet normal -0.0 -0.0 1.0
  outer loop
    vertex -67.91170587002077 -43.75272671313779 6.499999999999999
    vertex -68.41170587747135 -49.752726713137776 6.499999999999999
    vertex -67.91170587002071 -49.752726713137825 6.499999999999999
  endloop
endfacet
facet normal -1.0 -1.3159843585223348e-14 0.0
  outer loop
    vertex -68.41170587747142 -43.7527267131377 6.499999999999999
    vertex -68.41170587747135 -49.752726713137776 1.5
    vertex -68.41170587747135 -49.752726713137776 6.499999999999999
  endloop
endfacet
facet normal -1.0 -1.3159843585223348e-14 0.0
  outer loop
    vertex -68.41170587747135 -49.752726713137776 1.5
    vertex -68.41170587747142 -43.7527267131377 6.499999999999999
    vertex -68.41170587747142 -43.7527267131377 1.5
  endloop
endfacet
facet normal 1.8047785219370896e-13 1.0 -0.0
  outer loop
    vertex -68.41170587747142 -43.7527267131377 6.499999999999999
    vertex -67.91170587002077 -43.75272671313779 1.5
    vertex -68.41170587747142 -43.7527267131377 1.5
  endloop
endfacet
facet normal 1.8047785219370896e-13 1.0 -0.0
  outer loop
    vertex -67.91170587002077 -43.75272671313779 1.5
    vertex -68.41170587747142 -43.7527267131377 6.499999999999999
    vertex -67.91170587002077 -43.75272671313779 6.499999999999999
  endloop
endfacet
facet normal 0.0 -1.0 -4.223683866581101e-16
  outer loop
    vertex -54.745254437777895 -77.13372090240085 2.5000000000001186
    vertex -134.7452544377779 -77.13372090240085 1.184385922670117e-13
    vertex -54.745254437777895 -77.13372090240085 1.1828479063614492e-13
  endloop
endfacet
facet normal 0.0 -1.0 -4.223683866581101e-16
  outer loop
    vertex -134.7452544377779 -77.13372090240085 1.184385922670117e-13
    vertex -54.745254437777895 -77.13372090240085 2.5000000000001186
    vertex -134.7452544377779 -77.13372090240085 2.5000000000001186
  endloop
endfacet
facet normal 1.0 2.1685772200276663e-32 -7.690081543339169e-17
  outer loop
    vertex -54.745254437777895 -17.13372090240085 1.3520458953143229e-13
    vertex -54.745254437777895 -77.13372090240085 2.5000000000001186
    vertex -54.745254437777895 -77.13372090240085 1.1828479063614492e-13
  endloop
endfacet
facet normal 1.0 2.1685772200276663e-32 -7.690081543339169e-17
  outer loop
    vertex -54.745254437777895 -77.13372090240085 2.5000000000001186
    vertex -54.745254437777895 -17.13372090240085 1.3520458953143229e-13
    vertex -54.745254437777895 -17.13372090240085 2.5000000000001354
  endloop
endfacet
facet normal -5.451804620662082e-16 -1.0 1.9524861000576913e-31
  outer loop
    vertex -66.81170587598122 -71.35272709460756 9.999999999999998
    vertex -108.19200731760453 -71.35272709460753 5.0
    vertex -66.81170587598122 -71.35272709460756 5.0
  endloop
endfacet
facet normal -5.451804620662082e-16 -1.0 1.9524861000576913e-31
  outer loop
    vertex -108.19200731760453 -71.35272709460753 5.0
    vertex -66.81170587598122 -71.35272709460756 9.999999999999998
    vertex -108.19200731760453 -71.35272709460753 9.999999999999998
  endloop
endfacet
facet normal 1.0 7.155044322114939e-16 -6.188497082781361e-17
  outer loop
    vertex -66.81170587598125 -23.65272633166808 5.0
    vertex -66.81170587598122 -71.35272709460756 9.999999999999998
    vertex -66.81170587598122 -71.35272709460756 5.0
  endloop
endfacet
facet normal 1.0 7.155044322114939e-16 -6.188497082781361e-17
  outer loop
    vertex -66.81170587598122 -71.35272709460756 9.999999999999998
    vertex -66.81170587598125 -23.65272633166808 5.0
    vertex -66.81170587598125 -22.152726331668077 9.999999999999998
  endloop
endfacet
facet normal 1.0 7.155044322114939e-16 -6.188497082781361e-17
  outer loop
    vertex -66.81170587598125 -22.152726331668077 9.999999999999998
    vertex -66.81170587598125 -23.65272633166808 5.0
    vertex -66.81170587598125 -22.15272633166808 4.999999999999999
  endloop
endfacet
facet normal 1.5628993349575956e-16 -1.0 -2.2361943062514467e-30
  outer loop
    vertex -59.04825069692787 -74.5131425945694 5.000000000000091
    vertex -134.7452544377779 -74.51314259456942 2.5000000000001186
    vertex -59.04825069692787 -74.5131425945694 2.50000000000009
  endloop
endfacet
facet normal 1.5628993349575956e-16 -1.0 -2.2361943062514467e-30
  outer loop
    vertex -134.7452544377779 -74.51314259456942 2.5000000000001186
    vertex -59.04825069692787 -74.5131425945694 5.000000000000091
    vertex -134.7452544377779 -74.51314259456942 5.000000000000119
  endloop
endfacet
facet normal 0.0 1.0 4.223683866581101e-16
  outer loop
    vertex -134.7452544377779 -17.13372090240085 1.3535839116229907e-13
    vertex -54.745254437777895 -17.13372090240085 2.5000000000001354
    vertex -54.745254437777895 -17.13372090240085 1.3520458953143229e-13
  endloop
endfacet
facet normal 0.0 1.0 4.223683866581101e-16
  outer loop
    vertex -54.745254437777895 -17.13372090240085 2.5000000000001354
    vertex -134.7452544377779 -17.13372090240085 1.3535839116229907e-13
    vertex -134.7452544377779 -17.13372090240085 2.5000000000001354
  endloop
endfacet
facet normal 7.690081543339169e-17 -4.223683866581101e-16 1.0
  outer loop
    vertex -54.745254437777895 -77.13372090240085 2.5000000000001186
    vertex -134.7452544377779 -74.51314259456942 2.5000000000001186
    vertex -134.7452544377779 -77.13372090240085 2.5000000000001186
  endloop
endfacet
facet normal 7.690081543339169e-17 -4.223683866581101e-16 1.0
  outer loop
    vertex -134.7452544377779 -74.51314259456942 2.5000000000001186
    vertex -54.745254437777895 -77.13372090240085 2.5000000000001186
    vertex -59.04825069692787 -74.5131425945694 2.50000000000009
  endloop
endfacet
facet normal 7.690081543339169e-17 -4.223683866581101e-16 1.0
  outer loop
    vertex -59.04825069692787 -74.5131425945694 2.50000000000009
    vertex -54.745254437777895 -77.13372090240085 2.5000000000001186
    vertex -59.04825069692787 -19.29354259456937 2.5000000000001354
  endloop
endfacet
facet normal 7.690081543339169e-17 -4.223683866581101e-16 1.0
  outer loop
    vertex -59.04825069692787 -19.29354259456937 2.5000000000001354
    vertex -134.7452544377779 -17.13372090240085 2.5000000000001354
    vertex -134.7452544377779 -19.29354259456938 2.5000000000001354
  endloop
endfacet
facet normal 7.690081543339169e-17 -4.223683866581101e-16 1.0
  outer loop
    vertex -134.7452544377779 -17.13372090240085 2.5000000000001354
    vertex -59.04825069692787 -19.29354259456937 2.5000000000001354
    vertex -54.745254437777895 -17.13372090240085 2.5000000000001354
  endloop
endfacet
facet normal 7.690081543339169e-17 -4.223683866581101e-16 1.0
  outer loop
    vertex -54.745254437777895 -17.13372090240085 2.5000000000001354
    vertex -59.04825069692787 -19.29354259456937 2.5000000000001354
    vertex -54.745254437777895 -77.13372090240085 2.5000000000001186
  endloop
endfacet
endsolid Project-17 Iambic Keyer V2
